<svg xmlns="http://www.w3.org/2000/svg" xmlns:svg="http://www.w3.org/2000/svg" id="svg3277" width="526.211" height="252" version="1.1"><metadata id="metadata3282"/><g id="layer1" transform="translate(-398.9989,-271.375)"><rect style="opacity:.6;fill:#0000b0;fill-opacity:.50196078;stroke:#000;stroke-width:2;stroke-linecap:round;stroke-linejoin:round;stroke-miterlimit:4;stroke-opacity:.44292238;stroke-dasharray:none;stroke-dashoffset:0" id="rect4572" width="60" height="120" x="-522.362" y="400" transform="matrix(0,-1,1,0,0,0)"/><rect style="opacity:.6;fill:#0000b0;fill-opacity:.50196078;stroke:#000;stroke-width:2;stroke-linecap:round;stroke-linejoin:round;stroke-miterlimit:4;stroke-opacity:.44292238;stroke-dasharray:none;stroke-dashoffset:0" id="rect4594" width="60" height="120" x="-452.362" y="400" transform="matrix(0,-1,1,0,0,0)"/><rect style="opacity:.6;fill:#0000b0;fill-opacity:.50196078;stroke:#000;stroke-width:2;stroke-linecap:round;stroke-linejoin:round;stroke-miterlimit:4;stroke-opacity:.44292238;stroke-dasharray:none;stroke-dashoffset:0" id="rect4598" width="80" height="120" x="-382.362" y="400" transform="matrix(0,-1,1,0,0,0)"/><rect style="opacity:.6;fill:#0000b0;fill-opacity:.50196078;stroke:#000;stroke-width:2;stroke-linecap:round;stroke-linejoin:round;stroke-miterlimit:4;stroke-opacity:.44292238;stroke-dasharray:none;stroke-dashoffset:0" id="rect4600" width="20" height="120" x="-292.362" y="400" transform="matrix(0,-1,1,0,0,0)"/><rect style="opacity:.6;fill:#0000b0;fill-opacity:.50196078;stroke:#000;stroke-width:2;stroke-linecap:round;stroke-linejoin:round;stroke-miterlimit:4;stroke-opacity:.44292238;stroke-dasharray:none;stroke-dashoffset:0" id="rect4602" width="60" height="30" x="-522.362" y="530" transform="matrix(0,-1,1,0,0,0)"/><rect style="opacity:.6;fill:#0000b0;fill-opacity:.50196078;stroke:#000;stroke-width:2;stroke-linecap:round;stroke-linejoin:round;stroke-miterlimit:4;stroke-opacity:.44292238;stroke-dasharray:none;stroke-dashoffset:0" id="rect4604" width="60" height="30" x="-452.362" y="530" transform="matrix(0,-1,1,0,0,0)"/><rect style="opacity:.6;fill:#0000b0;fill-opacity:.50196078;stroke:#000;stroke-width:2;stroke-linecap:round;stroke-linejoin:round;stroke-miterlimit:4;stroke-opacity:.44292238;stroke-dasharray:none;stroke-dashoffset:0" id="rect4606" width="80" height="30" x="-382.362" y="530" transform="matrix(0,-1,1,0,0,0)"/><rect style="opacity:.6;fill:#0000b0;fill-opacity:.50196078;stroke:#000;stroke-width:2;stroke-linecap:round;stroke-linejoin:round;stroke-miterlimit:4;stroke-opacity:.44292238;stroke-dasharray:none;stroke-dashoffset:0" id="rect4608" width="20" height="30" x="-292.362" y="530" transform="matrix(0,-1,1,0,0,0)"/><rect style="opacity:.6;fill:#0000b0;fill-opacity:.50196078;stroke:#000;stroke-width:2;stroke-linecap:round;stroke-linejoin:round;stroke-miterlimit:4;stroke-opacity:.44292238;stroke-dasharray:none;stroke-dashoffset:0" id="rect4610" width="60" height="60" x="-522.362" y="570" transform="matrix(0,-1,1,0,0,0)"/><rect style="opacity:.6;fill:#0000b0;fill-opacity:.50196078;stroke:#000;stroke-width:2;stroke-linecap:round;stroke-linejoin:round;stroke-miterlimit:4;stroke-opacity:.44292238;stroke-dasharray:none;stroke-dashoffset:0" id="rect4612" width="60" height="60" x="-452.362" y="570" transform="matrix(0,-1,1,0,0,0)"/><rect style="opacity:.6;fill:#0000b0;fill-opacity:.50196078;stroke:#000;stroke-width:2;stroke-linecap:round;stroke-linejoin:round;stroke-miterlimit:4;stroke-opacity:.44292238;stroke-dasharray:none;stroke-dashoffset:0" id="rect4614" width="80" height="60" x="-382.362" y="570" transform="matrix(0,-1,1,0,0,0)"/><rect style="opacity:.6;fill:#0000b0;fill-opacity:.50196078;stroke:#000;stroke-width:2;stroke-linecap:round;stroke-linejoin:round;stroke-miterlimit:4;stroke-opacity:.44292238;stroke-dasharray:none;stroke-dashoffset:0" id="rect4616" width="20" height="60" x="-292.362" y="570" transform="matrix(0,-1,1,0,0,0)"/><rect style="opacity:.6;fill:#0000b0;fill-opacity:.50196078;stroke:#000;stroke-width:2;stroke-linecap:round;stroke-linejoin:round;stroke-miterlimit:4;stroke-opacity:.44292238;stroke-dasharray:none;stroke-dashoffset:0" id="rect4618" width="60" height="110" x="-522.362" y="640" transform="matrix(0,-1,1,0,0,0)"/><rect style="opacity:.6;fill:#0000b0;fill-opacity:.50196078;stroke:#000;stroke-width:2;stroke-linecap:round;stroke-linejoin:round;stroke-miterlimit:4;stroke-opacity:.44292238;stroke-dasharray:none;stroke-dashoffset:0" id="rect4620" width="60" height="110" x="-452.362" y="640" transform="matrix(0,-1,1,0,0,0)"/><rect style="opacity:.6;fill:#0000b0;fill-opacity:.50196078;stroke:#000;stroke-width:2;stroke-linecap:round;stroke-linejoin:round;stroke-miterlimit:4;stroke-opacity:.44292238;stroke-dasharray:none;stroke-dashoffset:0" id="rect4622" width="80" height="110" x="-382.362" y="640" transform="matrix(0,-1,1,0,0,0)"/><rect style="opacity:.6;fill:#0000b0;fill-opacity:.50196078;stroke:#000;stroke-width:2;stroke-linecap:round;stroke-linejoin:round;stroke-miterlimit:4;stroke-opacity:.44292238;stroke-dasharray:none;stroke-dashoffset:0" id="rect4624" width="20" height="110" x="-292.362" y="640" transform="matrix(0,-1,1,0,0,0)"/><rect style="opacity:.6;fill:#0000b0;fill-opacity:.50196078;stroke:#000;stroke-width:2;stroke-linecap:round;stroke-linejoin:round;stroke-miterlimit:4;stroke-opacity:.44292238;stroke-dasharray:none;stroke-dashoffset:0" id="rect4626" width="60" height="50" x="-522.362" y="760" transform="matrix(0,-1,1,0,0,0)"/><rect style="opacity:.6;fill:#0000b0;fill-opacity:.50196078;stroke:#000;stroke-width:2;stroke-linecap:round;stroke-linejoin:round;stroke-miterlimit:4;stroke-opacity:.44292238;stroke-dasharray:none;stroke-dashoffset:0" id="rect4628" width="60" height="50" x="-452.362" y="760" transform="matrix(0,-1,1,0,0,0)"/><rect style="opacity:.6;fill:#0000b0;fill-opacity:.50196078;stroke:#000;stroke-width:2;stroke-linecap:round;stroke-linejoin:round;stroke-miterlimit:4;stroke-opacity:.44292238;stroke-dasharray:none;stroke-dashoffset:0" id="rect4630" width="80" height="50" x="-382.362" y="760" transform="matrix(0,-1,1,0,0,0)"/><rect style="opacity:.6;fill:#0000b0;fill-opacity:.50196078;stroke:#000;stroke-width:2;stroke-linecap:round;stroke-linejoin:round;stroke-miterlimit:4;stroke-opacity:.44292238;stroke-dasharray:none;stroke-dashoffset:0" id="rect4632" width="20" height="50" x="-292.362" y="760" transform="matrix(0,-1,1,0,0,0)"/><text style="font-size:12px;font-style:normal;font-variant:normal;font-weight:400;font-stretch:normal;text-align:center;line-height:125%;letter-spacing:0;word-spacing:0;text-anchor:middle;fill:#000;fill-opacity:1;stroke:none;font-family:Ubuntu;-inkscape-font-specification:Ubuntu" id="text4653" x="848.617" y="337.362" xml:space="preserve"><tspan id="tspan4655" x="850.23" y="337.362" style="font-size:14px;fill:#000;fill-opacity:1">NumPy </tspan><tspan id="tspan4657" x="848.617" y="354.862" style="font-size:14px;fill:#000;fill-opacity:1">Array</tspan></text><text style="font-size:44.57763289999999756px;font-style:normal;font-variant:normal;font-weight:400;font-stretch:normal;text-align:center;line-height:125%;letter-spacing:0;word-spacing:0;text-anchor:middle;fill:#000;fill-opacity:1;stroke:none;font-family:Ubuntu;-inkscape-font-specification:Ubuntu" id="text4659" x="1510.312" y="198.093" transform="scale(0.53962379,1.8531429)" xml:space="preserve"><tspan id="tspan4661" x="1510.312" y="198.093">}</tspan></text><text style="font-size:107.32640838999999744px;font-style:normal;font-variant:normal;font-weight:400;font-stretch:normal;text-align:center;line-height:125%;letter-spacing:0;word-spacing:0;text-anchor:middle;fill:#000;fill-opacity:1;stroke:none;font-family:Ubuntu;-inkscape-font-specification:Ubuntu" id="text4671" x="2106.272" y="197.529" transform="scale(0.41670775,2.3997634)" xml:space="preserve"><tspan id="tspan4673" x="2106.272" y="197.529">}</tspan></text><text style="font-size:12px;font-style:normal;font-variant:normal;font-weight:400;font-stretch:normal;text-align:center;line-height:125%;letter-spacing:0;word-spacing:0;text-anchor:middle;fill:#000;fill-opacity:1;stroke:none;font-family:Ubuntu;-inkscape-font-specification:Ubuntu" id="text4653-3" x="908.387" y="387.362" xml:space="preserve"><tspan id="tspan4699" x="910" y="387.362" style="font-size:14px;fill:#000;fill-opacity:1">Dask </tspan><tspan id="tspan4657-0" x="908.387" y="404.862" style="font-size:14px;fill:#000;fill-opacity:1">Array</tspan></text></g></svg>