<svg xmlns="http://www.w3.org/2000/svg" xmlns:xlink="http://www.w3.org/1999/xlink" width="1084" height="464pt" viewBox="0 0 813 463.69"><g id="graph0" class="graph" transform="scale(1 1) rotate(0) translate(4 459.685)"><title>%3</title><polygon fill="#fff" stroke="none" points="-4 4 -4 -459.685 809 -459.685 809 4 -4 4"/><g id="node1" class="node"><title>1458014055779299329</title><polygon fill="none" stroke="#000" points="805 -140.894 734 -140.894 734 -104.894 805 -104.894 805 -140.894"/><text x="769.5" y="-119.194" font-family="Times,serif" font-size="14" text-anchor="middle">double-#0</text></g><g id="node4" class="node"><title>2049265477069956274</title><ellipse cx="688.5" cy="-200.292" fill="none" stroke="#000" rx="23.296" ry="23.296"/><text x="688.5" y="-196.592" font-family="Times,serif" font-size="14" text-anchor="middle">add</text></g><g id="edge3" class="edge"><title>1458014055779299329-&gt;2049265477069956274</title><path fill="none" stroke="#000" d="M751.12,-141.003C739.678,-151.653 724.839,-165.466 712.478,-176.972"/><polygon fill="#000" stroke="#000" points="710.089 -174.414 705.154 -183.789 714.859 -179.538 710.089 -174.414"/></g><g id="node2" class="node"><title>6701054586395645232</title><ellipse cx="769.5" cy="-34.447" fill="none" stroke="#000" rx="34.394" ry="34.394"/><text x="769.5" y="-30.747" font-family="Times,serif" font-size="14" text-anchor="middle">double</text></g><g id="edge1" class="edge"><title>6701054586395645232-&gt;1458014055779299329</title><path fill="none" stroke="#000" d="M769.5,-69.1171C769.5,-77.5557 769.5,-86.5057 769.5,-94.5916"/><polygon fill="#000" stroke="#000" points="766 -94.608 769.5 -104.608 773 -94.608 766 -94.608"/></g><g id="node3" class="node"><title>-2663340490572826749</title><polygon fill="none" stroke="#000" points="660.5 -295.69 606.5 -295.69 606.5 -259.69 660.5 -259.69 660.5 -295.69"/><text x="633.5" y="-273.99" font-family="Times,serif" font-size="14" text-anchor="middle">add-#1</text></g><g id="node28" class="node"><title>5459913405674845445</title><ellipse cx="396.5" cy="-357.687" fill="none" stroke="#000" rx="25.995" ry="25.995"/><text x="396.5" y="-353.987" font-family="Times,serif" font-size="14" text-anchor="middle">sum</text></g><g id="edge23" class="edge"><title>-2663340490572826749-&gt;5459913405674845445</title><path fill="none" stroke="#000" d="M606.313,-287.637C562.951,-301.908 478.2,-329.8 430.756,-345.413"/><polygon fill="#000" stroke="#000" points="429.632 -342.099 421.227 -348.55 431.82 -348.748 429.632 -342.099"/></g><g id="edge2" class="edge"><title>2049265477069956274-&gt;-2663340490572826749</title><path fill="none" stroke="#000" d="M675.186,-219.544C668.232,-229.077 659.61,-240.896 652.016,-251.307"/><polygon fill="#000" stroke="#000" points="649.003 -249.498 645.937 -259.64 654.658 -253.623 649.003 -249.498"/></g><g id="node5" class="node"><title>-4985944494202966629</title><polygon fill="none" stroke="#000" points="715.5 -140.894 661.5 -140.894 661.5 -104.894 715.5 -104.894 715.5 -140.894"/><text x="688.5" y="-119.194" font-family="Times,serif" font-size="14" text-anchor="middle">inc-#2</text></g><g id="edge4" class="edge"><title>-4985944494202966629-&gt;2049265477069956274</title><path fill="none" stroke="#000" d="M688.5,-141.003C688.5,-148.623 688.5,-157.861 688.5,-166.716"/><polygon fill="#000" stroke="#000" points="685 -166.813 688.5 -176.814 692 -166.814 685 -166.813"/></g><g id="node6" class="node"><title>4444290810974576327</title><polygon fill="none" stroke="#000" points="188.5 -295.69 134.5 -295.69 134.5 -259.69 188.5 -259.69 188.5 -295.69"/><text x="161.5" y="-273.99" font-family="Times,serif" font-size="14" text-anchor="middle">add-#3</text></g><g id="edge26" class="edge"><title>4444290810974576327-&gt;5459913405674845445</title><path fill="none" stroke="#000" d="M188.917,-287.79C232.006,-302.091 315.488,-329.799 362.39,-345.366"/><polygon fill="#000" stroke="#000" points="361.5 -348.758 372.093 -348.587 363.705 -342.115 361.5 -348.758"/></g><g id="node7" class="node"><title>-7395553549245320242</title><ellipse cx="116.5" cy="-200.292" fill="none" stroke="#000" rx="23.296" ry="23.296"/><text x="116.5" y="-196.592" font-family="Times,serif" font-size="14" text-anchor="middle">add</text></g><g id="edge5" class="edge"><title>-7395553549245320242-&gt;4444290810974576327</title><path fill="none" stroke="#000" d="M128.089,-220.709C133.591,-229.929 140.243,-241.074 146.158,-250.985"/><polygon fill="#000" stroke="#000" points="143.199 -252.855 151.329 -259.648 149.21 -249.268 143.199 -252.855"/></g><g id="node8" class="node"><title>8285413665155640955</title><polygon fill="none" stroke="#000" points="71 -140.894 0 -140.894 0 -104.894 71 -104.894 71 -140.894"/><text x="35.5" y="-119.194" font-family="Times,serif" font-size="14" text-anchor="middle">double-#4</text></g><g id="edge6" class="edge"><title>8285413665155640955-&gt;-7395553549245320242</title><path fill="none" stroke="#000" d="M53.8802,-141.003C65.3217,-151.653 80.1609,-165.466 92.5219,-176.972"/><polygon fill="#000" stroke="#000" points="90.141 -179.538 99.846 -183.789 94.911 -174.414 90.141 -179.538"/></g><g id="node9" class="node"><title>-5052693257052651058</title><polygon fill="none" stroke="#000" points="143.5 -140.894 89.5 -140.894 89.5 -104.894 143.5 -104.894 143.5 -140.894"/><text x="116.5" y="-119.194" font-family="Times,serif" font-size="14" text-anchor="middle">inc-#5</text></g><g id="edge7" class="edge"><title>-5052693257052651058-&gt;-7395553549245320242</title><path fill="none" stroke="#000" d="M116.5,-141.003C116.5,-148.623 116.5,-157.861 116.5,-166.716"/><polygon fill="#000" stroke="#000" points="113 -166.813 116.5 -176.814 120 -166.814 113 -166.813"/></g><g id="node10" class="node"><title>3948720209280600008</title><polygon fill="none" stroke="#000" points="567 -140.894 496 -140.894 496 -104.894 567 -104.894 567 -140.894"/><text x="531.5" y="-119.194" font-family="Times,serif" font-size="14" text-anchor="middle">double-#6</text></g><g id="node31" class="node"><title>-498744703366429471</title><ellipse cx="531.5" cy="-200.292" fill="none" stroke="#000" rx="23.296" ry="23.296"/><text x="531.5" y="-196.592" font-family="Times,serif" font-size="14" text-anchor="middle">add</text></g><g id="edge29" class="edge"><title>3948720209280600008-&gt;-498744703366429471</title><path fill="none" stroke="#000" d="M531.5,-141.003C531.5,-148.623 531.5,-157.861 531.5,-166.716"/><polygon fill="#000" stroke="#000" points="528 -166.813 531.5 -176.814 535 -166.814 528 -166.813"/></g><g id="node11" class="node"><title>-8005224606849766411</title><ellipse cx="531.5" cy="-34.447" fill="none" stroke="#000" rx="34.394" ry="34.394"/><text x="531.5" y="-30.747" font-family="Times,serif" font-size="14" text-anchor="middle">double</text></g><g id="edge8" class="edge"><title>-8005224606849766411-&gt;3948720209280600008</title><path fill="none" stroke="#000" d="M531.5,-69.1171C531.5,-77.5557 531.5,-86.5057 531.5,-94.5916"/><polygon fill="#000" stroke="#000" points="528 -94.608 531.5 -104.608 535 -94.608 528 -94.608"/></g><g id="node12" class="node"><title>542416636597761034</title><polygon fill="none" stroke="#000" points="326.5 -295.69 272.5 -295.69 272.5 -259.69 326.5 -259.69 326.5 -295.69"/><text x="299.5" y="-273.99" font-family="Times,serif" font-size="14" text-anchor="middle">add-#7</text></g><g id="edge22" class="edge"><title>542416636597761034-&gt;5459913405674845445</title><path fill="none" stroke="#000" d="M321.027,-296C335.061,-307.285 353.513,-322.122 368.659,-334.3"/><polygon fill="#000" stroke="#000" points="366.698 -337.215 376.684 -340.754 371.084 -331.759 366.698 -337.215"/></g><g id="node13" class="node"><title>957714430942449007</title><ellipse cx="278.5" cy="-200.292" fill="none" stroke="#000" rx="23.296" ry="23.296"/><text x="278.5" y="-196.592" font-family="Times,serif" font-size="14" text-anchor="middle">add</text></g><g id="edge9" class="edge"><title>957714430942449007-&gt;542416636597761034</title><path fill="none" stroke="#000" d="M284.574,-223.1C286.873,-231.353 289.517,-240.849 291.936,-249.533"/><polygon fill="#000" stroke="#000" points="288.583 -250.538 294.638 -259.232 295.326 -248.66 288.583 -250.538"/></g><g id="node14" class="node"><title>6610071032423609008</title><polygon fill="none" stroke="#000" points="233 -140.894 162 -140.894 162 -104.894 233 -104.894 233 -140.894"/><text x="197.5" y="-119.194" font-family="Times,serif" font-size="14" text-anchor="middle">double-#8</text></g><g id="edge10" class="edge"><title>6610071032423609008-&gt;957714430942449007</title><path fill="none" stroke="#000" d="M215.88,-141.003C227.322,-151.653 242.161,-165.466 254.522,-176.972"/><polygon fill="#000" stroke="#000" points="252.141 -179.538 261.846 -183.789 256.911 -174.414 252.141 -179.538"/></g><g id="node15" class="node"><title>-396791374205749251</title><polygon fill="none" stroke="#000" points="305.5 -140.894 251.5 -140.894 251.5 -104.894 305.5 -104.894 305.5 -140.894"/><text x="278.5" y="-119.194" font-family="Times,serif" font-size="14" text-anchor="middle">inc-#9</text></g><g id="edge11" class="edge"><title>-396791374205749251-&gt;957714430942449007</title><path fill="none" stroke="#000" d="M278.5,-141.003C278.5,-148.623 278.5,-157.861 278.5,-166.716"/><polygon fill="#000" stroke="#000" points="275 -166.813 278.5 -176.814 282 -166.814 275 -166.813"/></g><g id="node16" class="node"><title>-4262554210423640405</title><ellipse cx="116.5" cy="-34.447" fill="none" stroke="#000" rx="21.396" ry="21.396"/><text x="116.5" y="-30.747" font-family="Times,serif" font-size="14" text-anchor="middle">inc</text></g><g id="edge12" class="edge"><title>-4262554210423640405-&gt;-5052693257052651058</title><path fill="none" stroke="#000" d="M116.5,-55.9337C116.5,-67.4415 116.5,-81.9552 116.5,-94.4365"/><polygon fill="#000" stroke="#000" points="113 -94.755 116.5 -104.755 120 -94.755 113 -94.755"/></g><g id="node17" class="node"><title>8517388458569052054</title><polygon fill="none" stroke="#000" points="381.5 -140.894 323.5 -140.894 323.5 -104.894 381.5 -104.894 381.5 -140.894"/><text x="352.5" y="-119.194" font-family="Times,serif" font-size="14" text-anchor="middle">inc-#10</text></g><g id="node26" class="node"><title>7791591925678556540</title><ellipse cx="396.5" cy="-200.292" fill="none" stroke="#000" rx="23.296" ry="23.296"/><text x="396.5" y="-196.592" font-family="Times,serif" font-size="14" text-anchor="middle">add</text></g><g id="edge20" class="edge"><title>8517388458569052054-&gt;7791591925678556540</title><path fill="none" stroke="#000" d="M362.484,-141.003C367.609,-149.785 373.989,-160.717 379.834,-170.733"/><polygon fill="#000" stroke="#000" points="376.937 -172.714 385.001 -179.587 382.983 -169.186 376.937 -172.714"/></g><g id="node18" class="node"><title>2929596393616219699</title><ellipse cx="352.5" cy="-34.447" fill="none" stroke="#000" rx="21.396" ry="21.396"/><text x="352.5" y="-30.747" font-family="Times,serif" font-size="14" text-anchor="middle">inc</text></g><g id="edge13" class="edge"><title>2929596393616219699-&gt;8517388458569052054</title><path fill="none" stroke="#000" d="M352.5,-55.9337C352.5,-67.4415 352.5,-81.9552 352.5,-94.4365"/><polygon fill="#000" stroke="#000" points="349 -94.755 352.5 -104.755 356 -94.755 349 -94.755"/></g><g id="node19" class="node"><title>6414158183690305625</title><polygon fill="none" stroke="#000" points="477.5 -140.894 399.5 -140.894 399.5 -104.894 477.5 -104.894 477.5 -140.894"/><text x="438.5" y="-119.194" font-family="Times,serif" font-size="14" text-anchor="middle">double-#11</text></g><g id="edge19" class="edge"><title>6414158183690305625-&gt;7791591925678556540</title><path fill="none" stroke="#000" d="M428.97,-141.003C424.078,-149.785 417.988,-160.717 412.408,-170.733"/><polygon fill="#000" stroke="#000" points="409.286 -169.147 407.477 -179.587 415.401 -172.554 409.286 -169.147"/></g><g id="node20" class="node"><title>-4928746311088754872</title><ellipse cx="438.5" cy="-34.447" fill="none" stroke="#000" rx="34.394" ry="34.394"/><text x="438.5" y="-30.747" font-family="Times,serif" font-size="14" text-anchor="middle">double</text></g><g id="edge14" class="edge"><title>-4928746311088754872-&gt;6414158183690305625</title><path fill="none" stroke="#000" d="M438.5,-69.1171C438.5,-77.5557 438.5,-86.5057 438.5,-94.5916"/><polygon fill="#000" stroke="#000" points="435 -94.608 438.5 -104.608 442 -94.608 435 -94.608"/></g><g id="node21" class="node"><title>-7692825099134127446</title><ellipse cx="688.5" cy="-34.447" fill="none" stroke="#000" rx="21.396" ry="21.396"/><text x="688.5" y="-30.747" font-family="Times,serif" font-size="14" text-anchor="middle">inc</text></g><g id="edge15" class="edge"><title>-7692825099134127446-&gt;-4985944494202966629</title><path fill="none" stroke="#000" d="M688.5,-55.9337C688.5,-67.4415 688.5,-81.9552 688.5,-94.4365"/><polygon fill="#000" stroke="#000" points="685 -94.755 688.5 -104.755 692 -94.755 685 -94.755"/></g><g id="node22" class="node"><title>8866146705477033254</title><polygon fill="none" stroke="#000" points="643.5 -140.894 585.5 -140.894 585.5 -104.894 643.5 -104.894 643.5 -140.894"/><text x="614.5" y="-119.194" font-family="Times,serif" font-size="14" text-anchor="middle">inc-#12</text></g><g id="edge30" class="edge"><title>8866146705477033254-&gt;-498744703366429471</title><path fill="none" stroke="#000" d="M595.666,-141.003C583.942,-151.653 568.736,-165.466 556.07,-176.972"/><polygon fill="#000" stroke="#000" points="553.614 -174.475 548.566 -183.789 558.321 -179.656 553.614 -174.475"/></g><g id="node23" class="node"><title>-3118011605129036509</title><ellipse cx="614.5" cy="-34.447" fill="none" stroke="#000" rx="21.396" ry="21.396"/><text x="614.5" y="-30.747" font-family="Times,serif" font-size="14" text-anchor="middle">inc</text></g><g id="edge16" class="edge"><title>-3118011605129036509-&gt;8866146705477033254</title><path fill="none" stroke="#000" d="M614.5,-55.9337C614.5,-67.4415 614.5,-81.9552 614.5,-94.4365"/><polygon fill="#000" stroke="#000" points="611 -94.755 614.5 -104.755 618 -94.755 611 -94.755"/></g><g id="node24" class="node"><title>-1402459633780304227</title><ellipse cx="197.5" cy="-34.447" fill="none" stroke="#000" rx="34.394" ry="34.394"/><text x="197.5" y="-30.747" font-family="Times,serif" font-size="14" text-anchor="middle">double</text></g><g id="edge17" class="edge"><title>-1402459633780304227-&gt;6610071032423609008</title><path fill="none" stroke="#000" d="M197.5,-69.1171C197.5,-77.5557 197.5,-86.5057 197.5,-94.5916"/><polygon fill="#000" stroke="#000" points="194 -94.608 197.5 -104.608 201 -94.608 194 -94.608"/></g><g id="node25" class="node"><title>1492004226049625077</title><polygon fill="none" stroke="#000" points="427 -295.69 366 -295.69 366 -259.69 427 -259.69 427 -295.69"/><text x="396.5" y="-273.99" font-family="Times,serif" font-size="14" text-anchor="middle">add-#13</text></g><g id="edge25" class="edge"><title>1492004226049625077-&gt;5459913405674845445</title><path fill="none" stroke="#000" d="M396.5,-296C396.5,-303.484 396.5,-312.53 396.5,-321.327"/><polygon fill="#000" stroke="#000" points="393 -321.431 396.5 -331.431 400 -321.431 393 -321.431"/></g><g id="edge18" class="edge"><title>7791591925678556540-&gt;1492004226049625077</title><path fill="none" stroke="#000" d="M396.5,-223.914C396.5,-231.965 396.5,-241.116 396.5,-249.51"/><polygon fill="#000" stroke="#000" points="393 -249.598 396.5 -259.598 400 -249.598 393 -249.598"/></g><g id="node27" class="node"><title>-8233839601751503304</title><polygon fill="none" stroke="#000" points="429 -455.685 364 -455.685 364 -419.685 429 -419.685 429 -455.685"/><text x="396.5" y="-433.985" font-family="Times,serif" font-size="14" text-anchor="middle">sum-#14</text></g><g id="edge21" class="edge"><title>5459913405674845445-&gt;-8233839601751503304</title><path fill="none" stroke="#000" d="M396.5,-383.796C396.5,-391.847 396.5,-400.806 396.5,-409.028"/><polygon fill="#000" stroke="#000" points="393 -409.275 396.5 -419.275 400 -409.275 393 -409.275"/></g><g id="node29" class="node"><title>8829710584837903292</title><polygon fill="none" stroke="#000" points="534 -295.69 473 -295.69 473 -259.69 534 -259.69 534 -295.69"/><text x="503.5" y="-273.99" font-family="Times,serif" font-size="14" text-anchor="middle">add-#15</text></g><g id="edge24" class="edge"><title>8829710584837903292-&gt;5459913405674845445</title><path fill="none" stroke="#000" d="M480.018,-295.807C463.988,-307.492 442.642,-323.052 425.543,-335.517"/><polygon fill="#000" stroke="#000" points="423.058 -332.997 417.039 -341.716 427.181 -338.653 423.058 -332.997"/></g><g id="node30" class="node"><title>8464118818514893962</title><ellipse cx="35.5" cy="-34.447" fill="none" stroke="#000" rx="34.394" ry="34.394"/><text x="35.5" y="-30.747" font-family="Times,serif" font-size="14" text-anchor="middle">double</text></g><g id="edge27" class="edge"><title>8464118818514893962-&gt;8285413665155640955</title><path fill="none" stroke="#000" d="M35.5,-69.1171C35.5,-77.5557 35.5,-86.5057 35.5,-94.5916"/><polygon fill="#000" stroke="#000" points="32 -94.608 35.5 -104.608 39 -94.608 32 -94.608"/></g><g id="edge28" class="edge"><title>-498744703366429471-&gt;8829710584837903292</title><path fill="none" stroke="#000" d="M523.551,-222.696C520.403,-231.174 516.749,-241.012 513.43,-249.951"/><polygon fill="#000" stroke="#000" points="510.069 -248.947 509.869 -259.54 516.631 -251.384 510.069 -248.947"/></g><g id="node32" class="node"><title>5763205663740709060</title><ellipse cx="278.5" cy="-34.447" fill="none" stroke="#000" rx="21.396" ry="21.396"/><text x="278.5" y="-30.747" font-family="Times,serif" font-size="14" text-anchor="middle">inc</text></g><g id="edge31" class="edge"><title>5763205663740709060-&gt;-396791374205749251</title><path fill="none" stroke="#000" d="M278.5,-55.9337C278.5,-67.4415 278.5,-81.9552 278.5,-94.4365"/><polygon fill="#000" stroke="#000" points="275 -94.755 278.5 -104.755 282 -94.755 275 -94.755"/></g></g></svg>