<svg xmlns="http://www.w3.org/2000/svg" xmlns:svg="http://www.w3.org/2000/svg" id="svg2" width="333.803" height="385.03" version="1.1"><metadata id="metadata7"/><g id="layer1" transform="translate(-646.99034,-33.219463)"><flowRoot id="flowRoot4048" xml:space="preserve" style="font-size:25px;font-style:normal;font-variant:normal;font-weight:400;font-stretch:normal;line-height:125%;letter-spacing:0;word-spacing:0;fill:#000;fill-opacity:1;stroke:none;font-family:Ubuntu;-inkscape-font-specification:Ubuntu"><flowRegion id="flowRegion4050"><rect id="rect4052" width="135.897" height="85.626" x="-8.286" y="109.369"/></flowRegion><flowPara id="flowPara4054"/></flowRoot><path style="fill:#1414c8;fill-opacity:.50196078;stroke:#000;stroke-width:1.60000002;stroke-miterlimit:4;stroke-opacity:.55555558;stroke-dasharray:none" id="path3918-7-1-1-8" d="m 350,167.36218 c 0,8.28427 -11.19288,15 -25,15 -13.80712,0 -25,-6.71573 -25,-15 0,-8.28427 11.19288,-15 25,-15 13.80712,0 25,6.71573 25,15 z" transform="translate(347.79034,-118.34272)"/><path style="fill:#1414c8;fill-opacity:.50196078;stroke:#000;stroke-width:1.60000002;stroke-miterlimit:4;stroke-opacity:.55555558;stroke-dasharray:none" id="path3918-7-1-4-4" d="m 350,167.36218 c 0,8.28427 -11.19288,15 -25,15 -13.80712,0 -25,-6.71573 -25,-15 0,-8.28427 11.19288,-15 25,-15 13.80712,0 25,6.71573 25,15 z" transform="translate(497.79036,-118.34272)"/><text style="font-size:25px;font-style:normal;font-variant:normal;font-weight:400;font-stretch:normal;line-height:125%;letter-spacing:0;word-spacing:0;fill:#000;fill-opacity:1;stroke:none;font-family:Ubuntu;-inkscape-font-specification:Ubuntu" id="text4044-66-7-6" x="899.826" y="92.362" xml:space="preserve"><tspan id="tspan4046-79-8-0" x="899.826" y="92.362" style="font-size:14px">worker</tspan></text><path style="fill:#1414c8;fill-opacity:.50196078;stroke:#000;stroke-width:1.60000002;stroke-miterlimit:4;stroke-opacity:.55555558;stroke-dasharray:none" id="path3918-7-1-11-4" d="m 350,167.36218 c 0,8.28427 -11.19288,15 -25,15 -13.80712,0 -25,-6.71573 -25,-15 0,-8.28427 11.19288,-15 25,-15 13.80712,0 25,6.71573 25,15 z" transform="translate(427.79032,11.65731)"/><path style="fill:#500;fill-opacity:.51226154;stroke:#00000d;stroke-width:1;stroke-miterlimit:4;stroke-opacity:.82833785;stroke-dasharray:none" id="path3923-4-2-5-5" d="m -173.30595,26.56071 -6.98259,10.328733 -5.45365,11.211465 -5.45365,-11.211465 -6.98259,-10.328733 12.43624,0.882732 z" transform="matrix(0.91409898,-0.40549114,0.40549114,0.91409898,930.16823,57.1933)"/><path style="fill:#500;fill-opacity:.51226154;stroke:#00000d;stroke-width:1;stroke-miterlimit:4;stroke-opacity:.82833785;stroke-dasharray:none" id="path3923-4-2-0-3" d="m -173.30595,26.56071 -6.98259,10.328733 -5.45365,11.211465 -5.45365,-11.211465 -6.98259,-10.328733 12.43624,0.882732 z" transform="matrix(0.90556939,0.42419817,-0.42419817,0.90556939,914.30479,211.21948)"/><path style="fill:#500;fill-opacity:.51226154;stroke:#00000d;stroke-width:1;stroke-miterlimit:4;stroke-opacity:.82833785;stroke-dasharray:none" id="path3923-4-2-6-1" d="m -173.30595,26.56071 -6.98259,10.328733 -5.45365,11.211465 -5.45365,-11.211465 -6.98259,-10.328733 12.43624,0.882732 z" transform="translate(1008.9107,36.91939)"/><path style="fill:#500;fill-opacity:.51226154;stroke:#00000d;stroke-width:1;stroke-miterlimit:4;stroke-opacity:.82833785;stroke-dasharray:none" id="path3923-4-2-2-8" d="m -173.30595,26.56071 -6.98259,10.328733 -5.45365,11.211465 -5.45365,-11.211465 -6.98259,-10.328733 12.43624,0.882732 z" transform="translate(858.11182,36.08601)"/><path style="fill:#500;fill-opacity:.51226154;stroke:#00000d;stroke-width:1;stroke-miterlimit:4;stroke-opacity:.82833785;stroke-dasharray:none" id="path3923-4-2-7-7" d="m -173.30595,26.56071 -6.98259,10.328733 -5.45365,11.211465 -5.45365,-11.211465 -6.98259,-10.328733 12.43624,0.882732 z" transform="matrix(0.8660254,0.5,-0.5,0.8660254,882.25513,111.79252)"/><path style="fill:#500;fill-opacity:.51226154;stroke:#00000d;stroke-width:1;stroke-miterlimit:4;stroke-opacity:.82833785;stroke-dasharray:none" id="path3923-4-2-71-4" d="m -173.30595,26.56071 -6.98259,10.328733 -5.45365,11.211465 -5.45365,-11.211465 -6.98259,-10.328733 12.43624,0.882732 z" transform="matrix(0.8660254,-0.5,0.5,0.8660254,936.3567,-73.583537)"/><rect style="fill:#500;fill-opacity:.51226154;stroke:#00000d;stroke-width:1;stroke-miterlimit:4;stroke-opacity:.82833785;stroke-dasharray:none" id="rect4118-01" width="20" height="10" x="690" y="62.362"/><rect style="fill:#500;fill-opacity:.51226154;stroke:#00000d;stroke-width:1;stroke-miterlimit:4;stroke-opacity:.82833785;stroke-dasharray:none" id="rect4118-7-8" width="20" height="10" x="790" y="62.362"/><rect style="fill:#500;fill-opacity:.51226154;stroke:#00000d;stroke-width:1;stroke-miterlimit:4;stroke-opacity:.82833785;stroke-dasharray:none" id="rect4118-0-4" width="20" height="10" x="740" y="152.362"/><path style="fill:none;stroke:#000;stroke-width:1px;stroke-linecap:butt;stroke-linejoin:miter;stroke-opacity:1" id="path4150" d="m 701.80999,72.362183 30.25518,83.581007"/><path style="fill:none;stroke:#000;stroke-width:1px;stroke-linecap:butt;stroke-linejoin:miter;stroke-opacity:1" id="path4154" d="M 710.00006,65.238466 781.2826,50.100076"/><path style="fill:none;stroke:#000;stroke-width:1px;stroke-linecap:butt;stroke-linejoin:miter;stroke-opacity:1" id="path4156" d="m 800.00006,67.362183 0,0"/><path style="fill:none;stroke:#000;stroke-width:1px;stroke-linecap:butt;stroke-linejoin:miter;stroke-opacity:1" id="path4158" d="M 790.00006,65.270344 715.64868,49.717234"/><path style="fill:none;stroke:#000;stroke-width:1px;stroke-linecap:butt;stroke-linejoin:miter;stroke-opacity:1" id="path4160" d="M 819.79407,78.083222 754.40186,152.3622"/><path style="fill:none;stroke:#000;stroke-width:1px;stroke-linecap:butt;stroke-linejoin:miter;stroke-opacity:1" id="path4162" d="M 675.80275,77.129209 745.3762,152.3622"/><path style="fill:none;stroke:#000;stroke-width:1px;stroke-linecap:butt;stroke-linejoin:miter;stroke-opacity:1" id="path4164" d="M 773.3931,156.5954 798.50919,72.362183"/><rect style="fill:#500;fill-opacity:.51226154;stroke:#00000d;stroke-width:1;stroke-miterlimit:4;stroke-opacity:.82833785;stroke-dasharray:none" id="rect4118-3" width="20" height="10" x="869.826" y="102.362"/><path style="fill:#500;fill-opacity:.51226154;stroke:#00000d;stroke-width:1;stroke-miterlimit:4;stroke-opacity:.82833785;stroke-dasharray:none" id="path3923-4-2-7-3" d="m -173.30595,26.56071 -6.98259,10.328733 -5.45365,11.211465 -5.45365,-11.211465 -6.98259,-10.328733 12.43624,0.882732 z" transform="matrix(0.8660254,0.5,-0.5,0.8660254,1055.6438,195.79616)"/><text style="font-size:16px;font-style:normal;font-variant:normal;font-weight:400;font-stretch:normal;line-height:125%;letter-spacing:0;word-spacing:0;fill:#000;fill-opacity:1;stroke:none;font-family:Ubuntu;-inkscape-font-specification:Ubuntu" id="text4202" x="901.409" y="111.944" xml:space="preserve"><tspan id="tspan4204" x="901.409" y="111.944">router</tspan></text><text style="font-size:16px;font-style:normal;font-variant:normal;font-weight:400;font-stretch:normal;line-height:125%;letter-spacing:0;word-spacing:0;fill:#000;fill-opacity:1;stroke:none;font-family:Ubuntu;-inkscape-font-specification:Ubuntu" id="text4206" x="900" y="141.194" xml:space="preserve"><tspan id="tspan4208" x="900" y="141.194">dealer</tspan></text><flowRoot id="flowRoot4210" transform="translate(1190.1563,-269.30492)" xml:space="preserve" style="font-size:16px;font-style:normal;font-variant:normal;font-weight:400;font-stretch:normal;line-height:125%;letter-spacing:0;word-spacing:0;fill:#000;fill-opacity:1;stroke:none;font-family:Ubuntu;-inkscape-font-specification:Ubuntu"><flowRegion id="flowRegion4212"><rect id="rect4214" width="220.369" height="91.512" x="-400.151" y="419.488"/></flowRegion><flowPara id="flowPara4216" style="font-size:12px">every worker has:</flowPara><flowPara id="flowPara4218" style="font-size:12px">: one router</flowPara><flowPara id="flowPara4220" style="font-size:12px">: a dealer for every other</flowPara><flowPara id="flowPara4222" style="font-size:12px">worker to which it has spoken</flowPara></flowRoot><path style="fill:#1414c8;fill-opacity:.50196078;stroke:#000;stroke-width:1.60000002;stroke-miterlimit:4;stroke-opacity:.55555558;stroke-dasharray:none" id="path3918-7-1-4-2" d="m 350,167.36218 c 0,8.28427 -11.19288,15 -25,15 -13.80712,0 -25,-6.71573 -25,-15 0,-8.28427 11.19288,-15 25,-15 13.80712,0 25,6.71573 25,15 z" transform="matrix(0.49320971,0,0,0.49320971,719.75391,4.873346)"/><path style="fill:#1414c8;fill-opacity:.50196078;stroke:#000;stroke-width:1.60000002;stroke-miterlimit:4;stroke-opacity:.55555558;stroke-dasharray:none" id="path3918-7-7-8" d="m 350,167.36218 c 0,8.28427 -11.19288,15 -25,15 -13.80712,0 -25,-6.71573 -25,-15 0,-8.28427 11.19288,-15 25,-15 13.80712,0 25,6.71573 25,15 z" transform="translate(494.80403,86.74426)"/><path style="fill:#1414c8;fill-opacity:.50196078;stroke:#000;stroke-width:1.60000002;stroke-miterlimit:4;stroke-opacity:.55555558;stroke-dasharray:none" id="path3918-7-1-0" d="m 350,167.36218 c 0,8.28427 -11.19288,15 -25,15 -13.80712,0 -25,-6.71573 -25,-15 0,-8.28427 11.19288,-15 25,-15 13.80712,0 25,6.71573 25,15 z" transform="translate(362.8684,86.74426)"/><rect style="fill:#1414c8;fill-opacity:.50196078;stroke:#000;stroke-width:1.60000002;stroke-miterlimit:4;stroke-opacity:.55555558;stroke-dasharray:none" id="rect3959-5-4" width="110" height="50" x="697.014" y="367.449"/><rect style="fill:#500;fill-opacity:.51226154;stroke:#00000d;stroke-width:1;stroke-miterlimit:4;stroke-opacity:.82833785;stroke-dasharray:none" id="rect3104-0" width="70" height="20" x="717.014" y="347.449"/><path style="fill:#500;fill-opacity:.51226154;stroke:#00000d;stroke-width:1;stroke-miterlimit:4;stroke-opacity:.82833785;stroke-dasharray:none" id="path3923-0" d="m -173.30595,26.56071 -6.98259,10.328733 -5.45365,11.211465 -5.45365,-11.211465 -6.98259,-10.328733 12.43624,0.882732 z" transform="translate(1004.8809,241.57827)"/><path style="fill:#500;fill-opacity:.51226154;stroke:#00000d;stroke-width:1;stroke-miterlimit:4;stroke-opacity:.82833785;stroke-dasharray:none" id="path3923-4-4" d="m -173.30595,26.56071 -6.98259,10.328733 -5.45365,11.211465 -5.45365,-11.211465 -6.98259,-10.328733 12.43624,0.882732 z" transform="translate(873.33555,241.85958)"/><path style="fill:none;stroke:#000;stroke-width:1px;stroke-linecap:butt;stroke-linejoin:miter;stroke-opacity:1" id="path3966-6" d="m 690.88638,283.19079 52.89564,64.25837"/><path style="fill:none;stroke:#000;stroke-width:1px;stroke-linecap:butt;stroke-linejoin:miter;stroke-opacity:1" id="path3968-5" d="m 752.01373,357.44916 0,0"/><path style="fill:none;stroke:#000;stroke-width:1px;stroke-linecap:butt;stroke-linejoin:miter;stroke-opacity:1" id="path3970-2" d="m 815.80001,282.81556 -55.23969,64.6336"/><text style="font-size:25px;font-style:normal;font-variant:normal;font-weight:400;font-stretch:normal;line-height:125%;letter-spacing:0;word-spacing:0;fill:#000;fill-opacity:1;stroke:none;font-family:Ubuntu;-inkscape-font-specification:Ubuntu" id="text4044-66-7-4" x="900" y="292.362" xml:space="preserve"><tspan id="tspan4046-79-8-3" x="900" y="292.362" style="font-size:14px">worker</tspan></text><rect style="fill:#500;fill-opacity:.51226154;stroke:#00000d;stroke-width:1;stroke-miterlimit:4;stroke-opacity:.82833785;stroke-dasharray:none" id="rect4118-3-2" width="20" height="10" x="870" y="302.362"/><path style="fill:#500;fill-opacity:.51226154;stroke:#00000d;stroke-width:1;stroke-miterlimit:4;stroke-opacity:.82833785;stroke-dasharray:none" id="path3923-4-2-7-3-5" d="m -173.30595,26.56071 -6.98259,10.328733 -5.45365,11.211465 -5.45365,-11.211465 -6.98259,-10.328733 12.43624,0.882732 z" transform="matrix(0.8660254,0.5,-0.5,0.8660254,1055.8183,395.79616)"/><text style="font-size:16px;font-style:normal;font-variant:normal;font-weight:400;font-stretch:normal;line-height:125%;letter-spacing:0;word-spacing:0;fill:#000;fill-opacity:1;stroke:none;font-family:Ubuntu;-inkscape-font-specification:Ubuntu" id="text4202-0" x="901.583" y="311.944" xml:space="preserve"><tspan id="tspan4204-9" x="901.583" y="311.944">router</tspan></text><text style="font-size:16px;font-style:normal;font-variant:normal;font-weight:400;font-stretch:normal;line-height:125%;letter-spacing:0;word-spacing:0;fill:#000;fill-opacity:1;stroke:none;font-family:Ubuntu;-inkscape-font-specification:Ubuntu" id="text4206-1" x="900.175" y="341.194" xml:space="preserve"><tspan id="tspan4208-9" x="900.175" y="341.194">dealer</tspan></text><path style="fill:#1414c8;fill-opacity:.50196078;stroke:#000;stroke-width:1.60000002;stroke-miterlimit:4;stroke-opacity:.55555558;stroke-dasharray:none" id="path3918-7-1-4-2-8" d="m 350,167.36218 c 0,8.28427 -11.19288,15 -25,15 -13.80712,0 -25,-6.71573 -25,-15 0,-8.28427 11.19288,-15 25,-15 13.80712,0 25,6.71573 25,15 z" transform="matrix(0.49320971,0,0,0.49320971,719.92839,204.87335)"/><flowRoot id="flowRoot4210-4" transform="translate(1220.1563,-59.304922)" xml:space="preserve" style="font-size:16px;font-style:normal;font-variant:normal;font-weight:400;font-stretch:normal;line-height:125%;letter-spacing:0;word-spacing:0;fill:#000;fill-opacity:1;stroke:none;font-family:Ubuntu;-inkscape-font-specification:Ubuntu"><flowRegion id="flowRegion4212-5"><rect id="rect4214-6" width="169.994" height="52.179" x="-400.151" y="419.488"/></flowRegion><flowPara id="flowPara4216-7" style="font-size:12px">The scheduler has one router</flowPara><flowPara id="flowPara4222-0" style="font-size:12px">to which each worker&apos;s dealer</flowPara><flowPara style="font-size:12px" id="flowPara4390">connects</flowPara></flowRoot><rect style="fill:#1414c8;fill-opacity:.50196078;stroke:#000;stroke-width:.41113886;stroke-miterlimit:4;stroke-opacity:.55555558;stroke-dasharray:none" id="rect3959-5-1" width="28.266" height="12.848" x="866.085" y="258.507"/><text style="font-size:25px;font-style:normal;font-variant:normal;font-weight:400;font-stretch:normal;line-height:125%;letter-spacing:0;word-spacing:0;fill:#000;fill-opacity:1;stroke:none;font-family:Ubuntu;-inkscape-font-specification:Ubuntu" id="text4044-66-7-4-4" x="900" y="272.362" xml:space="preserve"><tspan id="tspan4046-79-8-3-0" x="900" y="272.362" style="font-size:14px">scheduler</tspan></text></g></svg>