<svg xmlns="http://www.w3.org/2000/svg" xmlns:svg="http://www.w3.org/2000/svg" id="svg3164" width="450.438" height="431.805" version="1.1"><metadata id="metadata3169"/><g id="layer1" transform="translate(-974.78125,-1153.5938)"><path style="fill:#1414c8;fill-opacity:.50196078;stroke:#000;stroke-width:1.60000002;stroke-miterlimit:4;stroke-opacity:.55555558;stroke-dasharray:none" id="path3918" d="m 350,167.36218 c 0,8.28427 -11.19288,15 -25,15 -13.80712,0 -25,-6.71573 -25,-15 0,-8.28427 11.19288,-15 25,-15 13.80712,0 25,6.71573 25,15 z" transform="translate(875,1031.8902)"/><path style="fill:#1414c8;fill-opacity:.50196078;stroke:#000;stroke-width:1.60000002;stroke-miterlimit:4;stroke-opacity:.55555558;stroke-dasharray:none" id="path3918-0" d="m 350,167.36218 c 0,8.28427 -11.19288,15 -25,15 -13.80712,0 -25,-6.71573 -25,-15 0,-8.28427 11.19288,-15 25,-15 13.80712,0 25,6.71573 25,15 z" transform="translate(975,1052.4426)"/><path style="fill:#1414c8;fill-opacity:.50196078;stroke:#000;stroke-width:1.60000002;stroke-miterlimit:4;stroke-opacity:.55555558;stroke-dasharray:none" id="path3918-6" d="m 350,167.36218 c 0,8.28427 -11.19288,15 -25,15 -13.80712,0 -25,-6.71573 -25,-15 0,-8.28427 11.19288,-15 25,-15 13.80712,0 25,6.71573 25,15 z" transform="translate(775,1051.3378)"/><path style="fill:#1414c8;fill-opacity:.50196078;stroke:#000;stroke-width:1.60000002;stroke-miterlimit:4;stroke-opacity:.55555558;stroke-dasharray:none" id="path3918-7" d="m 350,167.36218 c 0,8.28427 -11.19288,15 -25,15 -13.80712,0 -25,-6.71573 -25,-15 0,-8.28427 11.19288,-15 25,-15 13.80712,0 25,6.71573 25,15 z" transform="translate(732.79029,1132.2429)"/><path style="fill:#1414c8;fill-opacity:.50196078;stroke:#000;stroke-width:1.60000002;stroke-miterlimit:4;stroke-opacity:.55555558;stroke-dasharray:none" id="path3918-03" d="m 350,167.36218 c 0,8.28427 -11.19288,15 -25,15 -13.80712,0 -25,-6.71573 -25,-15 0,-8.28427 11.19288,-15 25,-15 13.80712,0 25,6.71573 25,15 z" transform="translate(1021.9779,1132.2429)"/><rect style="fill:#1414c8;fill-opacity:.50196078;stroke:#000;stroke-width:1.60000002;stroke-miterlimit:4;stroke-opacity:.55555558;stroke-dasharray:none" id="rect3959" width="110" height="50" x="1145" y="1384.605"/><path style="fill:none;stroke:#000;stroke-width:2;stroke-linecap:butt;stroke-linejoin:miter;stroke-miterlimit:4;stroke-opacity:1;stroke-dasharray:none" id="path3961" d="m 1233.4041,1384.605 97.9357,-73.2962"/><path style="fill:none;stroke:#000;stroke-width:2;stroke-linecap:butt;stroke-linejoin:miter;stroke-miterlimit:4;stroke-opacity:1;stroke-dasharray:none" id="path3965" d="m 1292.4625,1234.111 -79.2908,150.494"/><path style="fill:none;stroke:#000;stroke-width:2;stroke-linecap:butt;stroke-linejoin:miter;stroke-miterlimit:4;stroke-opacity:1;stroke-dasharray:none" id="path3967" d="m 1200,1214.2524 0,170.3526"/><path style="fill:none;stroke:#000;stroke-width:2;stroke-linecap:butt;stroke-linejoin:miter;stroke-miterlimit:4;stroke-opacity:1;stroke-dasharray:none" id="path3969" d="m 1107.4978,1233.0137 79.4067,151.5913"/><path style="fill:none;stroke:#000;stroke-width:2;stroke-linecap:butt;stroke-linejoin:miter;stroke-miterlimit:4;stroke-opacity:1;stroke-dasharray:none" id="path3971" d="m 1073.1138,1311.4579 94.5658,73.1471"/><text style="font-size:25px;font-style:normal;font-variant:normal;font-weight:400;font-stretch:normal;text-align:center;line-height:125%;letter-spacing:0;word-spacing:0;text-anchor:middle;fill:#000;fill-opacity:1;stroke:none;font-family:Ubuntu;-inkscape-font-specification:Ubuntu" id="text4034" x="1342.119" y="1404.605" xml:space="preserve"><tspan id="tspan4036" x="1345" y="1404.605">same </tspan><tspan id="tspan4038" x="1342.119" y="1435.855">network</tspan></text><text style="font-size:25px;font-style:normal;font-variant:normal;font-weight:400;font-stretch:normal;line-height:125%;letter-spacing:0;word-spacing:0;fill:#000;fill-opacity:1;stroke:none;font-family:Ubuntu;-inkscape-font-specification:Ubuntu" id="text4040" x="1155" y="1414.605" xml:space="preserve"><tspan id="tspan4042" x="1155" y="1414.605" style="font-size:20px">scheduler</tspan></text><text style="font-size:25px;font-style:normal;font-variant:normal;font-weight:400;font-stretch:normal;line-height:125%;letter-spacing:0;word-spacing:0;fill:#000;fill-opacity:1;stroke:none;font-family:Ubuntu;-inkscape-font-specification:Ubuntu" id="text4044" x="1035" y="1302.948" xml:space="preserve"><tspan id="tspan4046" x="1035" y="1302.948" style="font-size:14px">worker</tspan></text><text style="font-size:25px;font-style:normal;font-variant:normal;font-weight:400;font-stretch:normal;line-height:125%;letter-spacing:0;word-spacing:0;fill:#000;fill-opacity:1;stroke:none;font-family:Ubuntu;-inkscape-font-specification:Ubuntu" id="text4044-5" x="1077.502" y="1224.605" xml:space="preserve"><tspan id="tspan4046-7" x="1077.502" y="1224.605" style="font-size:14px">worker</tspan></text><text style="font-size:25px;font-style:normal;font-variant:normal;font-weight:400;font-stretch:normal;line-height:125%;letter-spacing:0;word-spacing:0;fill:#000;fill-opacity:1;stroke:#000;stroke-opacity:.33333333;font-family:Ubuntu;-inkscape-font-specification:Ubuntu" id="text4044-6" x="1178.043" y="1204.605" xml:space="preserve"><tspan id="tspan4046-5" x="1178.043" y="1204.605" style="font-size:14px;stroke:#000;stroke-opacity:.33333333">worker</tspan></text><text style="font-size:25px;font-style:normal;font-variant:normal;font-weight:400;font-stretch:normal;line-height:125%;letter-spacing:0;word-spacing:0;fill:#000;fill-opacity:1;stroke:none;font-family:Ubuntu;-inkscape-font-specification:Ubuntu" id="text4044-7" x="1279.69" y="1224.605" xml:space="preserve"><tspan id="tspan4046-3" x="1279.69" y="1224.605" style="font-size:14px">worker</tspan></text><text style="font-size:25px;font-style:normal;font-variant:normal;font-weight:400;font-stretch:normal;line-height:125%;letter-spacing:0;word-spacing:0;fill:#000;fill-opacity:1;stroke:none;font-family:Ubuntu;-inkscape-font-specification:Ubuntu" id="text4044-0" x="1325" y="1304.958" xml:space="preserve"><tspan id="tspan4046-9" x="1325" y="1304.958" style="font-size:14px">worker</tspan></text><path style="fill:#500;fill-opacity:.52991489;stroke:#000;stroke-width:1.60000002;stroke-miterlimit:4;stroke-opacity:.55555558;stroke-dasharray:none" id="path4104" d="m 350,427.36218 c 0,13.80712 -11.19288,25 -25,25 -13.80712,0 -25,-11.19288 -25,-25 0,-13.80712 11.19288,-25 25,-25 13.80712,0 25,11.19288 25,25 z" transform="translate(875,1132.2429)"/><text style="font-size:25px;font-style:normal;font-variant:normal;font-weight:400;font-stretch:normal;line-height:125%;letter-spacing:0;word-spacing:0;fill:#000;fill-opacity:1;stroke:none;font-family:Ubuntu;-inkscape-font-specification:Ubuntu" id="text4106" x="1179.35" y="1564.122" xml:space="preserve"><tspan id="tspan4108" x="1179.35" y="1564.122" style="font-size:16px">client</tspan></text><path style="fill:#500;fill-opacity:.52991489;stroke:#000;stroke-width:1.60000002;stroke-miterlimit:4;stroke-opacity:.55555558;stroke-dasharray:none" id="path4104-5" d="m 350,427.36218 c 0,13.80712 -11.19288,25 -25,25 -13.80712,0 -25,-11.19288 -25,-25 0,-13.80712 11.19288,-25 25,-25 13.80712,0 25,11.19288 25,25 z" transform="translate(975,1132.2429)"/><text style="font-size:25px;font-style:normal;font-variant:normal;font-weight:400;font-stretch:normal;line-height:125%;letter-spacing:0;word-spacing:0;fill:#000;fill-opacity:1;stroke:none;font-family:Ubuntu;-inkscape-font-specification:Ubuntu" id="text4106-8" x="1279.35" y="1564.122" xml:space="preserve"><tspan id="tspan4108-9" x="1279.35" y="1564.122" style="font-size:16px">client</tspan></text><path style="fill:#500;fill-opacity:.52991489;stroke:#000;stroke-width:1.60000002;stroke-miterlimit:4;stroke-opacity:.55555558;stroke-dasharray:none" id="path4104-7" d="m 350,427.36218 c 0,13.80712 -11.19288,25 -25,25 -13.80712,0 -25,-11.19288 -25,-25 0,-13.80712 11.19288,-25 25,-25 13.80712,0 25,11.19288 25,25 z" transform="translate(775,1132.2429)"/><text style="font-size:25px;font-style:normal;font-variant:normal;font-weight:400;font-stretch:normal;line-height:125%;letter-spacing:0;word-spacing:0;fill:#000;fill-opacity:1;stroke:none;font-family:Ubuntu;-inkscape-font-specification:Ubuntu" id="text4106-0" x="1079.35" y="1564.122" xml:space="preserve"><tspan id="tspan4108-4" x="1079.35" y="1564.122" style="font-size:16px">client</tspan></text><path style="fill:none;stroke:#000;stroke-width:1px;stroke-linecap:butt;stroke-linejoin:miter;stroke-opacity:1" id="path4149" d="m 1183.3333,1434.605 -69.4643,104.1966"/><path style="fill:none;stroke:#000;stroke-width:1px;stroke-linecap:butt;stroke-linejoin:miter;stroke-opacity:1" id="path4153" d="M 1286.131,1538.8016 1216.6667,1434.605"/><path style="fill:none;stroke:#000;stroke-width:1px;stroke-linecap:butt;stroke-linejoin:miter;stroke-opacity:1" id="path4161" d="m 1200,1534.6051 0,-100.0001"/><path style="fill:none;stroke:#000;stroke-width:1px;stroke-linecap:butt;stroke-linejoin:miter;stroke-opacity:.33333333" id="path4163" d="m 1123.7884,1214.0737 52.4232,-10.1951"/><path style="fill:none;stroke:#000;stroke-width:1px;stroke-linecap:butt;stroke-linejoin:miter;stroke-opacity:.33333333" id="path4165" d="m 1092.5296,1233.0188 -27.2689,52.2674"/><path style="fill:none;stroke:#000;stroke-width:1px;stroke-linecap:butt;stroke-linejoin:miter;stroke-opacity:.31908833" id="path4167" d="m 1073.9847,1288.1772 109.8209,-77.497"/><path style="fill:none;stroke:#000;stroke-width:1px;stroke-linecap:butt;stroke-linejoin:miter;stroke-opacity:.33333333" id="path4186" d="m 1223.6574,1204.1145 52.6852,10.8281"/><path style="fill:none;stroke:#000;stroke-width:1px;stroke-linecap:butt;stroke-linejoin:miter;stroke-opacity:.33333333" id="path4188" d="m 1308.3285,1233.9523 30.3209,51.5053"/><path style="fill:none;stroke:#000;stroke-width:1px;stroke-linecap:butt;stroke-linejoin:miter;stroke-opacity:.31908833" id="path4192" d="m 1216.5029,1210.5201 113.9721,77.8173"/><path style="fill:none;stroke:#000;stroke-width:1px;stroke-linecap:butt;stroke-linejoin:miter;stroke-opacity:.33333333" id="path4194" d="m 1325.0311,1292.4157 -203.0843,-66.5264"/><path style="fill:none;stroke:#000;stroke-width:1px;stroke-linecap:butt;stroke-linejoin:miter;stroke-opacity:.33333333" id="path4196" d="m 1079.708,1292.3839 198.3743,-65.3579"/><rect style="fill:#1919b6;fill-opacity:.11396012;stroke:#000;stroke-width:1.89462483;stroke-miterlimit:4;stroke-opacity:.31908833;stroke-dasharray:none" id="rect4202" width="448.543" height="300.105" x="975.729" y="1154.552"/></g></svg>