<svg xmlns="http://www.w3.org/2000/svg" xmlns:svg="http://www.w3.org/2000/svg" id="svg3063" width="297.25" height="385.725" version="1.1"><defs id="defs3065"><marker style="overflow:visible" id="Arrow1Mend" orient="auto" refX="0" refY="0"><path style="fill-rule:evenodd;stroke:#000;stroke-width:1pt" id="path4039" d="M 0,0 5,-5 -12.5,0 5,5 0,0 z" transform="matrix(-0.4,0,0,-0.4,-4,0)"/></marker><marker style="overflow:visible" id="Arrow1Mend-0" orient="auto" refX="0" refY="0"><path style="fill-rule:evenodd;stroke:#000;stroke-width:1pt" id="path4039-9" d="M 0,0 5,-5 -12.5,0 5,5 0,0 z" transform="matrix(-0.4,0,0,-0.4,-4,0)"/></marker><marker style="overflow:visible" id="Arrow1Mend-3" orient="auto" refX="0" refY="0"><path style="fill-rule:evenodd;stroke:#000;stroke-width:1pt" id="path4039-8" d="M 0,0 5,-5 -12.5,0 5,5 0,0 z" transform="matrix(-0.4,0,0,-0.4,-4,0)"/></marker><marker style="overflow:visible" id="Arrow1Mend-8" orient="auto" refX="0" refY="0"><path style="fill-rule:evenodd;stroke:#000;stroke-width:1pt" id="path4039-5" d="M 0,0 5,-5 -12.5,0 5,5 0,0 z" transform="matrix(-0.4,0,0,-0.4,-4,0)"/></marker></defs><metadata id="metadata3068"/><g id="layer1" transform="translate(-69,-460.72218)"><rect id="rect3103" width="80" height="80" x="70" y="482.362" style="opacity:.6;fill:#00f;fill-opacity:.50196078;stroke:#000;stroke-width:2;stroke-linecap:round;stroke-miterlimit:4;stroke-opacity:1;stroke-dasharray:none;stroke-dashoffset:0"/><rect id="rect3109" width="80" height="40" x="70" y="582.362" style="opacity:.6;fill:#00f;fill-opacity:.50196078;stroke:#000;stroke-width:2;stroke-linecap:round;stroke-miterlimit:4;stroke-opacity:1;stroke-dasharray:none;stroke-dashoffset:0"/><rect id="rect3111" width="80" height="80" x="70" y="642.362" style="opacity:.6;fill:#00f;fill-opacity:.50196078;stroke:#000;stroke-width:2;stroke-linecap:round;stroke-miterlimit:4;stroke-opacity:1;stroke-dasharray:none;stroke-dashoffset:0"/><rect id="rect3113" width="80" height="60" x="70" y="742.362" style="opacity:.6;fill:#00f;fill-opacity:.50196078;stroke:#000;stroke-width:2;stroke-linecap:round;stroke-miterlimit:4;stroke-opacity:1;stroke-dasharray:none;stroke-dashoffset:0"/><path id="path3919" d="m 251.54112,482.36218 c 0,320 0,320 0,320" style="fill:none;stroke:#000;stroke-width:2.5;stroke-linecap:butt;stroke-linejoin:miter;stroke-miterlimit:4;stroke-opacity:1;stroke-dasharray:none"/><path id="path3919-4" d="m 255.46969,482.36218 c 0,320 0,320 0,320" style="fill:none;stroke:#000;stroke-width:2.5;stroke-linecap:butt;stroke-linejoin:miter;stroke-miterlimit:4;stroke-opacity:1;stroke-dasharray:none"/><path id="path4853" d="m 150,482.36218 c 100,0 100,0 100,0" style="fill:none;stroke:#000;stroke-width:1px;stroke-linecap:butt;stroke-linejoin:miter;stroke-opacity:.56621004"/><path id="path4855" d="m 150,562.36218 c 100,5 100,5 100,5" style="fill:none;stroke:#000;stroke-width:1px;stroke-linecap:butt;stroke-linejoin:miter;stroke-opacity:.56621004"/><path id="path4857" d="m 150,582.36218 c 100,-100 100,-100 100,-100" style="fill:none;stroke:#000;stroke-width:1px;stroke-linecap:butt;stroke-linejoin:miter;stroke-opacity:.56621004"/><path id="path4859" d="m 150,622.36218 c 100,-55 100,-55 100,-55" style="fill:none;stroke:#000;stroke-width:1px;stroke-linecap:butt;stroke-linejoin:miter;stroke-opacity:.56621004"/><path id="path4861" d="m 150,642.36218 c 100,-160 100,-160 100,-160" style="fill:none;stroke:#000;stroke-width:1px;stroke-linecap:butt;stroke-linejoin:miter;stroke-opacity:.56621004"/><path id="path4863" d="m 150,722.36218 c 100,-155 100,-155 100,-155" style="fill:none;stroke:#000;stroke-width:1px;stroke-linecap:butt;stroke-linejoin:miter;stroke-opacity:.56621004"/><path id="path4865" d="m 150,742.36218 c 100,-260 100,-260 100,-260" style="fill:none;stroke:#000;stroke-width:1px;stroke-linecap:butt;stroke-linejoin:miter;stroke-opacity:.56621004"/><path id="path4867" d="m 150,802.36218 c 100,-235 100,-235 100,-235" style="fill:none;stroke:#000;stroke-width:1px;stroke-linecap:butt;stroke-linejoin:miter;stroke-opacity:.56621004"/><path id="path4869" d="m 150,482.36218 c 100,95 100,95 100,95" style="fill:none;stroke:#000;stroke-width:1px;stroke-linecap:butt;stroke-linejoin:miter;stroke-opacity:.56621004"/><path id="path4875" d="m 150,562.36218 c 100,140 100,140 100,140" style="fill:none;stroke:#000;stroke-width:1px;stroke-linecap:butt;stroke-linejoin:miter;stroke-opacity:.56621004"/><path id="path4877" d="m 150,582.36218 c 100,-5 100,-5 100,-5" style="fill:none;stroke:#000;stroke-width:1px;stroke-linecap:butt;stroke-linejoin:miter;stroke-opacity:.56621004"/><path id="path4879" d="m 150,642.36218 c 100,-65 100,-65 100,-65" style="fill:none;stroke:#000;stroke-width:1px;stroke-linecap:butt;stroke-linejoin:miter;stroke-opacity:.56621004"/><path id="path4881" d="m 150,742.36218 c 100,-165 100,-165 100,-165" style="fill:none;stroke:#000;stroke-width:1px;stroke-linecap:butt;stroke-linejoin:miter;stroke-opacity:.56621004"/><path id="path4883" d="m 150,622.36218 c 100,80 100,80 100,80" style="fill:none;stroke:#000;stroke-width:1px;stroke-linecap:butt;stroke-linejoin:miter;stroke-opacity:.56621004"/><path id="path4885" d="m 150,722.36218 c 100,-20 100,-20 100,-20" style="fill:none;stroke:#000;stroke-width:1px;stroke-linecap:butt;stroke-linejoin:miter;stroke-opacity:.56621004"/><path id="path4887" d="m 150,802.36218 c 100,-100 100,-100 100,-100" style="fill:none;stroke:#000;stroke-width:1px;stroke-linecap:butt;stroke-linejoin:miter;stroke-opacity:.56621004"/><path id="path4889" d="m 150,482.36218 c 100,240 100,240 100,240" style="fill:none;stroke:#000;stroke-width:1px;stroke-linecap:butt;stroke-linejoin:miter;stroke-opacity:.56621004"/><path id="path4891" d="m 150,562.36218 c 100,240 100,240 100,240" style="fill:none;stroke:#000;stroke-width:1px;stroke-linecap:butt;stroke-linejoin:miter;stroke-opacity:.56621004"/><path id="path4893" d="m 150,582.36218 c 100,140 100,140 100,140" style="fill:none;stroke:#000;stroke-width:1px;stroke-linecap:butt;stroke-linejoin:miter;stroke-opacity:.56621004"/><path id="path4895" d="m 150,642.36218 c 100,80 100,80 100,80" style="fill:none;stroke:#000;stroke-width:1px;stroke-linecap:butt;stroke-linejoin:miter;stroke-opacity:.56621004"/><path id="path4897" d="m 150,742.36218 c 100,-20 100,-20 100,-20" style="fill:none;stroke:#000;stroke-width:1px;stroke-linecap:butt;stroke-linejoin:miter;stroke-opacity:.56621004"/><path id="path4899" d="m 150,622.36218 c 100,180 100,180 100,180" style="fill:none;stroke:#000;stroke-width:1px;stroke-linecap:butt;stroke-linejoin:miter;stroke-opacity:.56621004"/><path id="path4901" d="m 150,722.36218 c 100,80 100,80 100,80" style="fill:none;stroke:#000;stroke-width:1px;stroke-linecap:butt;stroke-linejoin:miter;stroke-opacity:.56621004"/><path id="path4903" d="m 150,802.36218 c 100,0 100,0 100,0" style="fill:none;stroke:#000;stroke-width:1px;stroke-linecap:butt;stroke-linejoin:miter;stroke-opacity:.56621004"/><rect id="rect4905" width="95" height="20" x="270" y="482.362" style="opacity:.6;fill:#00f;fill-opacity:.50196078;stroke:#000;stroke-width:2.5;stroke-linecap:round;stroke-miterlimit:4;stroke-opacity:1;stroke-dasharray:none;stroke-dashoffset:0"/><rect id="rect4907" width="95" height="15" x="270" y="502.362" style="opacity:.6;fill:#00f;fill-opacity:.50196078;stroke:#000;stroke-width:2.5;stroke-linecap:round;stroke-miterlimit:4;stroke-opacity:1;stroke-dasharray:none;stroke-dashoffset:0"/><rect id="rect4909" width="95" height="25" x="270" y="517.362" style="opacity:.6;fill:#00f;fill-opacity:.50196078;stroke:#000;stroke-width:2.5;stroke-linecap:round;stroke-miterlimit:4;stroke-opacity:1;stroke-dasharray:none;stroke-dashoffset:0"/><rect id="rect4911" width="95.12" height="22.62" x="269.94" y="542.302" style="opacity:.6;fill:#00f;fill-opacity:.50196078;stroke:#000;stroke-width:2.37955475;stroke-linecap:round;stroke-miterlimit:4;stroke-opacity:1;stroke-dasharray:none;stroke-dashoffset:0"/><rect id="rect4913" width="95" height="35" x="270" y="577.362" style="opacity:.6;fill:#00f;fill-opacity:.50196078;stroke:#000;stroke-width:2.5;stroke-linecap:round;stroke-miterlimit:4;stroke-opacity:1;stroke-dasharray:none;stroke-dashoffset:0"/><rect id="rect4915" width="95" height="35" x="270" y="612.362" style="opacity:.6;fill:#00f;fill-opacity:.50196078;stroke:#000;stroke-width:2.5;stroke-linecap:round;stroke-miterlimit:4;stroke-opacity:1;stroke-dasharray:none;stroke-dashoffset:0"/><rect id="rect4917" width="95" height="25" x="270" y="647.362" style="opacity:.6;fill:#00f;fill-opacity:.50196078;stroke:#000;stroke-width:2.5;stroke-linecap:round;stroke-miterlimit:4;stroke-opacity:1;stroke-dasharray:none;stroke-dashoffset:0"/><rect id="rect4919" width="94.837" height="34.087" x="270.081" y="672.443" style="opacity:.6;fill:#00f;fill-opacity:.50196078;stroke:#000;stroke-width:2.66259074;stroke-linecap:round;stroke-miterlimit:4;stroke-opacity:1;stroke-dasharray:none;stroke-dashoffset:0"/><rect id="rect4921" width="95" height="15" x="270" y="722.362" style="opacity:.6;fill:#00f;fill-opacity:.50196078;stroke:#000;stroke-width:2.5;stroke-linecap:round;stroke-miterlimit:4;stroke-opacity:1;stroke-dasharray:none;stroke-dashoffset:0"/><rect id="rect4923" width="95" height="20" x="270" y="737.362" style="opacity:.6;fill:#00f;fill-opacity:.50196078;stroke:#000;stroke-width:2.5;stroke-linecap:round;stroke-miterlimit:4;stroke-opacity:1;stroke-dasharray:none;stroke-dashoffset:0"/><rect id="rect4925" width="95" height="35" x="270" y="757.362" style="opacity:.6;fill:#00f;fill-opacity:.50196078;stroke:#000;stroke-width:2.5;stroke-linecap:round;stroke-miterlimit:4;stroke-opacity:1;stroke-dasharray:none;stroke-dashoffset:0"/><rect id="rect4927" width="95" height="10" x="270" y="792.362" style="opacity:.6;fill:#00f;fill-opacity:.50196078;stroke:#000;stroke-width:2.5;stroke-linecap:round;stroke-miterlimit:4;stroke-opacity:1;stroke-dasharray:none;stroke-dashoffset:0"/><text id="text4929" x="180" y="832.362" xml:space="preserve" style="font-size:20px;font-style:normal;font-variant:normal;font-weight:400;font-stretch:normal;line-height:125%;letter-spacing:0;word-spacing:0;fill:#000;fill-opacity:1;stroke:none;font-family:ubuntu;-inkscape-font-specification:ubuntu"><tspan style="font-size:15px" id="tspan4931" x="180" y="832.362">shuffle</tspan></text><text id="text4933" x="321.309" y="827.502" xml:space="preserve" style="font-size:20px;font-style:normal;font-variant:normal;font-weight:400;font-stretch:normal;line-height:125%;letter-spacing:0;word-spacing:0;fill:#000;fill-opacity:1;stroke:none;font-family:ubuntu;-inkscape-font-specification:ubuntu"><tspan style="font-size:15px;text-align:center;text-anchor:middle" id="tspan4935" x="321.309" y="827.502">concatenate</tspan><tspan style="font-size:15px;text-align:center;text-anchor:middle" id="tspan4937" x="321.309" y="846.252">subblocks</tspan></text><path id="path4939" d="m 180,842.36218 c 50,0 50,0 50,0" style="fill:none;stroke:#000;stroke-width:1px;stroke-linecap:butt;stroke-linejoin:miter;stroke-opacity:1;marker-end:url(#Arrow1Mend-8)"/><text id="text5129" x="80" y="472.362" xml:space="preserve" style="font-size:20px;font-style:normal;font-variant:normal;font-weight:400;font-stretch:normal;line-height:125%;letter-spacing:0;word-spacing:0;fill:#000;fill-opacity:1;stroke:none;font-family:ubuntu;-inkscape-font-specification:ubuntu"><tspan style="font-size:15px" id="tspan5131" x="80" y="472.362">old blocks</tspan></text><text id="text5133" x="280" y="472.362" xml:space="preserve" style="font-size:20px;font-style:normal;font-variant:normal;font-weight:400;font-stretch:normal;line-height:125%;letter-spacing:0;word-spacing:0;fill:#000;fill-opacity:1;stroke:none;font-family:ubuntu;-inkscape-font-specification:ubuntu"><tspan style="font-size:15px" id="tspan5135" x="280" y="472.362">new blocks</tspan></text></g></svg>