<svg xmlns="http://www.w3.org/2000/svg" xmlns:xlink="http://www.w3.org/1999/xlink" width="314pt" height="112pt" viewBox="0 0 313.69 111.9"><g id="graph0" class="graph" transform="scale(1 1) rotate(0) translate(4 107.896)"><title>%3</title><polygon fill="#fff" stroke="none" points="-4 4 -4 -107.896 309.692 -107.896 309.692 4 -4 4"/><g id="node1" class="node"><title>-3347572897014886303</title><polygon fill="none" stroke="#000" points="305.692 -70.448 251.692 -70.448 251.692 -34.448 305.692 -34.448 305.692 -70.448"/><text x="278.692" y="-48.748" font-family="Times,serif" font-size="14" text-anchor="middle">add-#0</text></g><g id="node2" class="node"><title>-2850255052063941396</title><ellipse cx="192.294" cy="-52.448" fill="none" stroke="#000" rx="23.296" ry="23.296"/><text x="192.294" y="-48.748" font-family="Times,serif" font-size="14" text-anchor="middle">add</text></g><g id="edge1" class="edge"><title>-2850255052063941396-&gt;-3347572897014886303</title><path fill="none" stroke="#000" d="M215.911,-52.4481C223.687,-52.4481 232.603,-52.4481 241.197,-52.4481"/><polygon fill="#000" stroke="#000" points="241.422 -55.948 251.422 -52.448 241.422 -48.948 241.422 -55.948"/></g><g id="node3" class="node"><title>-8351513739548264758</title><polygon fill="none" stroke="#000" points="132.896 -98.448 78.896 -98.448 78.896 -62.448 132.896 -62.448 132.896 -98.448"/><text x="105.896" y="-76.748" font-family="Times,serif" font-size="14" text-anchor="middle">inc-#1</text></g><g id="edge2" class="edge"><title>-8351513739548264758-&gt;-2850255052063941396</title><path fill="none" stroke="#000" d="M133.138,-71.7422C141.716,-68.8962 151.326,-65.7079 160.225,-62.7555"/><polygon fill="#000" stroke="#000" points="161.488 -66.024 169.878 -59.553 159.284 -59.38 161.488 -66.024"/></g><g id="node4" class="node"><title>-799087838119053254</title><polygon fill="none" stroke="#000" points="132.896 -42.448 78.896 -42.448 78.896 -6.448 132.896 -6.448 132.896 -42.448"/><text x="105.896" y="-20.748" font-family="Times,serif" font-size="14" text-anchor="middle">inc-#2</text></g><g id="edge3" class="edge"><title>-799087838119053254-&gt;-2850255052063941396</title><path fill="none" stroke="#000" d="M133.138,-33.154C141.716,-36 151.326,-39.1883 160.225,-42.1407"/><polygon fill="#000" stroke="#000" points="159.284 -45.516 169.878 -45.343 161.488 -38.872 159.284 -45.516"/></g><g id="node5" class="node"><title>-1627079348212151549</title><ellipse cx="21.448" cy="-21.448" fill="none" stroke="#000" rx="21.396" ry="21.396"/><text x="21.448" y="-17.748" font-family="Times,serif" font-size="14" text-anchor="middle">inc</text></g><g id="edge4" class="edge"><title>-1627079348212151549-&gt;-799087838119053254</title><path fill="none" stroke="#000" d="M43.2532,-22.2051C51.0022,-22.4871 60.0389,-22.8159 68.7663,-23.1335"/><polygon fill="#000" stroke="#000" points="68.653 -26.632 78.774 -23.498 68.908 -19.636 68.653 -26.632"/></g><g id="node6" class="node"><title>6935536028328168595</title><ellipse cx="21.448" cy="-82.448" fill="none" stroke="#000" rx="21.396" ry="21.396"/><text x="21.448" y="-78.748" font-family="Times,serif" font-size="14" text-anchor="middle">inc</text></g><g id="edge5" class="edge"><title>6935536028328168595-&gt;-8351513739548264758</title><path fill="none" stroke="#000" d="M43.2532,-81.9434C51.0022,-81.7554 60.0389,-81.5362 68.7663,-81.3245"/><polygon fill="#000" stroke="#000" points="68.862 -84.823 78.774 -81.082 68.692 -77.825 68.862 -84.823"/></g></g></svg>