<svg xmlns="http://www.w3.org/2000/svg" xmlns:xlink="http://www.w3.org/1999/xlink" width="808" height="634pt" viewBox="0 0 606.13 633.94"><g id="graph0" class="graph" transform="scale(1 1) rotate(0) translate(4 629.941)"><title>G</title><polygon fill="#fff" stroke="none" points="-4 4 -4 -629.941 602.134 -629.941 602.134 4 -4 4"/><g id="node1" class="node"><title>print3</title><polygon fill="none" stroke="#000" points="159.567 -625.941 105.567 -625.941 105.567 -589.941 159.567 -589.941 159.567 -625.941"/><text x="132.567" y="-603.741" font-family="Times,serif" font-size="14" text-anchor="middle">print3</text></g><g id="node2" class="node"><title>((&lt;method &apos;count&apos; of &apos;str&apos; objects&gt;, &apos;words&apos;, &apos;val2&apos;), &apos;function&apos;)</title><ellipse cx="323.567" cy="-101.754" fill="none" stroke="#000" rx="29.51" ry="29.51"/><text x="323.567" y="-97.554" font-family="Times,serif" font-size="14" text-anchor="middle">count</text></g><g id="node19" class="node"><title>count2</title><polygon fill="none" stroke="#000" points="350.671 -203.508 296.463 -203.508 296.463 -167.508 350.671 -167.508 350.671 -203.508"/><text x="323.567" y="-181.308" font-family="Times,serif" font-size="14" text-anchor="middle">count2</text></g><g id="edge1" class="edge"><title>((&lt;method &apos;count&apos; of &apos;str&apos; objects&gt;, &apos;words&apos;, &apos;val2&apos;), &apos;function&apos;)-&gt;count2</title><path fill="none" stroke="#000" d="M323.567,-131.808C323.567,-140.105 323.567,-149.113 323.567,-157.296"/><polygon fill="#000" stroke="#000" points="320.067 -157.448 323.567 -167.448 327.067 -157.448 320.067 -157.448"/></g><g id="node3" class="node"><title>print2</title><polygon fill="none" stroke="#000" points="350.567 -625.941 296.567 -625.941 296.567 -589.941 350.567 -589.941 350.567 -625.941"/><text x="323.567" y="-603.741" font-family="Times,serif" font-size="14" text-anchor="middle">print2</text></g><g id="node4" class="node"><title>val3</title><polygon fill="none" stroke="#000" points="77.201 -36 -.067 -36 -.067 0 77.201 0 77.201 -36"/><text x="38.567" y="-13.8" font-family="Times,serif" font-size="14" text-anchor="middle">val3=&apos;pear&apos;</text></g><g id="node21" class="node"><title>((&lt;method &apos;count&apos; of &apos;str&apos; objects&gt;, &apos;words&apos;, &apos;val3&apos;), &apos;function&apos;)</title><ellipse cx="132.567" cy="-101.754" fill="none" stroke="#000" rx="29.51" ry="29.51"/><text x="132.567" y="-97.554" font-family="Times,serif" font-size="14" text-anchor="middle">count</text></g><g id="edge2" class="edge"><title>val3-&gt;((&lt;method &apos;count&apos; of &apos;str&apos; objects&gt;, &apos;words&apos;, &apos;val3&apos;), &apos;function&apos;)</title><path fill="none" stroke="#000" d="M58.5019,-36.338C71.3249,-47.4904 88.2252,-62.189 102.644,-74.7293"/><polygon fill="#000" stroke="#000" points="100.515 -77.516 110.357 -81.438 105.109 -72.234 100.515 -77.516"/></g><g id="node22" class="node"><title>((&lt;built-in method format of str object at 0x1004d0c90&gt;, &apos;count3&apos;, &apos;val3&apos;, &apos;nwords&apos;), &apos;function&apos;)</title><ellipse cx="132.567" cy="-273.188" fill="none" stroke="#000" rx="33.86" ry="33.86"/><text x="132.567" y="-268.988" font-family="Times,serif" font-size="14" text-anchor="middle">format</text></g><g id="edge3" class="edge"><title>val3-&gt;((&lt;built-in method format of str object at 0x1004d0c90&gt;, &apos;count3&apos;, &apos;val3&apos;, &apos;nwords&apos;), &apos;function&apos;)</title><path fill="none" stroke="#000" d="M42.8593,-36.1492C51.3659,-69.1819 71.7079,-143.66 96.5669,-203.508 100.876,-213.884 106.202,-224.793 111.423,-234.785"/><polygon fill="#000" stroke="#000" points="108.363 -236.486 116.156 -243.663 114.54 -233.192 108.363 -236.486"/></g><g id="node5" class="node"><title>val2</title><polygon fill="none" stroke="#000" points="489.429 -36 405.705 -36 405.705 0 489.429 0 489.429 -36"/><text x="447.567" y="-13.8" font-family="Times,serif" font-size="14" text-anchor="middle">val2=&apos;apple&apos;</text></g><g id="edge4" class="edge"><title>val2-&gt;((&lt;method &apos;count&apos; of &apos;str&apos; objects&gt;, &apos;words&apos;, &apos;val2&apos;), &apos;function&apos;)</title><path fill="none" stroke="#000" d="M421.572,-36.1384C402.682,-48.593 376.967,-65.5472 356.617,-78.9638"/><polygon fill="#000" stroke="#000" points="354.682 -76.047 348.26 -84.474 358.535 -81.891 354.682 -76.047"/></g><g id="node11" class="node"><title>((&lt;built-in method format of str object at 0x1004d0c90&gt;, &apos;count2&apos;, &apos;val2&apos;, &apos;nwords&apos;), &apos;function&apos;)</title><ellipse cx="323.567" cy="-273.188" fill="none" stroke="#000" rx="33.86" ry="33.86"/><text x="323.567" y="-268.988" font-family="Times,serif" font-size="14" text-anchor="middle">format</text></g><g id="edge5" class="edge"><title>val2-&gt;((&lt;built-in method format of str object at 0x1004d0c90&gt;, &apos;count2&apos;, &apos;val2&apos;, &apos;nwords&apos;), &apos;function&apos;)</title><path fill="none" stroke="#000" d="M439.652,-36.1478C424.49,-68.8715 390.136,-142.412 359.567,-203.508 354.54,-213.556 348.965,-224.351 343.733,-234.338"/><polygon fill="#000" stroke="#000" points="340.609 -232.76 339.05 -243.239 346.804 -236.019 340.609 -232.76"/></g><g id="node6" class="node"><title>val1</title><polygon fill="none" stroke="#000" points="598.201 -36 506.933 -36 506.933 0 598.201 0 598.201 -36"/><text x="552.567" y="-13.8" font-family="Times,serif" font-size="14" text-anchor="middle">val1=&apos;orange&apos;</text></g><g id="node8" class="node"><title>((&lt;built-in method format of str object at 0x1004d0c90&gt;, &apos;count1&apos;, &apos;val1&apos;, &apos;nwords&apos;), &apos;function&apos;)</title><ellipse cx="482.567" cy="-273.188" fill="none" stroke="#000" rx="33.86" ry="33.86"/><text x="482.567" y="-268.988" font-family="Times,serif" font-size="14" text-anchor="middle">format</text></g><g id="edge6" class="edge"><title>val1-&gt;((&lt;built-in method format of str object at 0x1004d0c90&gt;, &apos;count1&apos;, &apos;val1&apos;, &apos;nwords&apos;), &apos;function&apos;)</title><path fill="none" stroke="#000" d="M551.131,-36.2269C547.991,-69.3924 539.087,-144.088 518.567,-203.508 514.9,-214.128 509.798,-225.122 504.586,-235.118"/><polygon fill="#000" stroke="#000" points="501.474 -233.515 499.807 -243.978 507.635 -236.838 501.474 -233.515"/></g><g id="node12" class="node"><title>((&lt;method &apos;count&apos; of &apos;str&apos; objects&gt;, &apos;words&apos;, &apos;val1&apos;), &apos;function&apos;)</title><ellipse cx="482.567" cy="-101.754" fill="none" stroke="#000" rx="29.51" ry="29.51"/><text x="482.567" y="-97.554" font-family="Times,serif" font-size="14" text-anchor="middle">count</text></g><g id="edge7" class="edge"><title>val1-&gt;((&lt;method &apos;count&apos; of &apos;str&apos; objects&gt;, &apos;words&apos;, &apos;val1&apos;), &apos;function&apos;)</title><path fill="none" stroke="#000" d="M537.722,-36.338C529.178,-46.3157 518.205,-59.1319 508.299,-70.7014"/><polygon fill="#000" stroke="#000" points="505.5 -68.589 501.654 -78.462 510.817 -73.142 505.5 -68.589"/></g><g id="node7" class="node"><title>((&lt;function print_and_return at 0x1071c2500&gt;, &apos;out2&apos;), &apos;function&apos;)</title><ellipse cx="323.567" cy="-484.404" fill="none" stroke="#000" rx="69.574" ry="69.574"/><text x="323.567" y="-480.204" font-family="Times,serif" font-size="14" text-anchor="middle">print_and_return</text></g><g id="edge8" class="edge"><title>((&lt;function print_and_return at 0x1071c2500&gt;, &apos;out2&apos;), &apos;function&apos;)-&gt;print2</title><path fill="none" stroke="#000" d="M323.567,-553.986C323.567,-563.062 323.567,-571.902 323.567,-579.677"/><polygon fill="#000" stroke="#000" points="320.067 -579.873 323.567 -589.873 327.067 -579.873 320.067 -579.873"/></g><g id="node13" class="node"><title>out1</title><polygon fill="none" stroke="#000" points="509.567 -378.867 455.567 -378.867 455.567 -342.867 509.567 -342.867 509.567 -378.867"/><text x="482.567" y="-356.667" font-family="Times,serif" font-size="14" text-anchor="middle">out1</text></g><g id="edge9" class="edge"><title>((&lt;built-in method format of str object at 0x1004d0c90&gt;, &apos;count1&apos;, &apos;val1&apos;, &apos;nwords&apos;), &apos;function&apos;)-&gt;out1</title><path fill="none" stroke="#000" d="M482.567,-307.068C482.567,-315.469 482.567,-324.409 482.567,-332.5"/><polygon fill="#000" stroke="#000" points="479.067 -332.528 482.567 -342.528 486.067 -332.529 479.067 -332.528"/></g><g id="node9" class="node"><title>nwords</title><polygon fill="none" stroke="#000" points="274.288 -203.508 216.846 -203.508 216.846 -167.508 274.288 -167.508 274.288 -203.508"/><text x="245.567" y="-181.308" font-family="Times,serif" font-size="14" text-anchor="middle">nwords</text></g><g id="edge11" class="edge"><title>nwords-&gt;((&lt;built-in method format of str object at 0x1004d0c90&gt;, &apos;count1&apos;, &apos;val1&apos;, &apos;nwords&apos;), &apos;function&apos;)</title><path fill="none" stroke="#000" d="M274.418,-198.389C278.81,-200.139 283.3,-201.894 287.567,-203.508 340.179,-223.409 401.455,-244.683 441.069,-258.19"/><polygon fill="#000" stroke="#000" points="440.061 -261.544 450.655 -261.452 442.315 -254.917 440.061 -261.544"/></g><g id="edge12" class="edge"><title>nwords-&gt;((&lt;built-in method format of str object at 0x1004d0c90&gt;, &apos;count2&apos;, &apos;val2&apos;, &apos;nwords&apos;), &apos;function&apos;)</title><path fill="none" stroke="#000" d="M261.351,-203.847C270.862,-214.294 283.27,-227.923 294.5,-240.259"/><polygon fill="#000" stroke="#000" points="291.983 -242.694 301.303 -247.732 297.16 -237.981 291.983 -242.694"/></g><g id="edge10" class="edge"><title>nwords-&gt;((&lt;built-in method format of str object at 0x1004d0c90&gt;, &apos;count3&apos;, &apos;val3&apos;, &apos;nwords&apos;), &apos;function&apos;)</title><path fill="none" stroke="#000" d="M222.971,-203.641C206.997,-215.753 185.286,-232.215 167.144,-245.971"/><polygon fill="#000" stroke="#000" points="164.947 -243.244 159.093 -252.075 169.176 -248.822 164.947 -243.244"/></g><g id="node10" class="node"><title>print1</title><polygon fill="none" stroke="#000" points="509.567 -625.941 455.567 -625.941 455.567 -589.941 509.567 -589.941 509.567 -625.941"/><text x="482.567" y="-603.741" font-family="Times,serif" font-size="14" text-anchor="middle">print1</text></g><g id="node14" class="node"><title>out2</title><polygon fill="none" stroke="#000" points="350.567 -378.867 296.567 -378.867 296.567 -342.867 350.567 -342.867 350.567 -378.867"/><text x="323.567" y="-356.667" font-family="Times,serif" font-size="14" text-anchor="middle">out2</text></g><g id="edge13" class="edge"><title>((&lt;built-in method format of str object at 0x1004d0c90&gt;, &apos;count2&apos;, &apos;val2&apos;, &apos;nwords&apos;), &apos;function&apos;)-&gt;out2</title><path fill="none" stroke="#000" d="M323.567,-307.068C323.567,-315.469 323.567,-324.409 323.567,-332.5"/><polygon fill="#000" stroke="#000" points="320.067 -332.528 323.567 -342.528 327.067 -332.529 320.067 -332.528"/></g><g id="node17" class="node"><title>count1</title><polygon fill="none" stroke="#000" points="509.671 -203.508 455.463 -203.508 455.463 -167.508 509.671 -167.508 509.671 -203.508"/><text x="482.567" y="-181.308" font-family="Times,serif" font-size="14" text-anchor="middle">count1</text></g><g id="edge14" class="edge"><title>((&lt;method &apos;count&apos; of &apos;str&apos; objects&gt;, &apos;words&apos;, &apos;val1&apos;), &apos;function&apos;)-&gt;count1</title><path fill="none" stroke="#000" d="M482.567,-131.808C482.567,-140.105 482.567,-149.113 482.567,-157.296"/><polygon fill="#000" stroke="#000" points="479.067 -157.448 482.567 -167.448 486.067 -157.448 479.067 -157.448"/></g><g id="node15" class="node"><title>((&lt;function print_and_return at 0x1071c2500&gt;, &apos;out1&apos;), &apos;function&apos;)</title><ellipse cx="482.567" cy="-484.404" fill="none" stroke="#000" rx="69.574" ry="69.574"/><text x="482.567" y="-480.204" font-family="Times,serif" font-size="14" text-anchor="middle">print_and_return</text></g><g id="edge15" class="edge"><title>out1-&gt;((&lt;function print_and_return at 0x1071c2500&gt;, &apos;out1&apos;), &apos;function&apos;)</title><path fill="none" stroke="#000" d="M482.567,-379.022C482.567,-386.21 482.567,-395.118 482.567,-404.677"/><polygon fill="#000" stroke="#000" points="479.067 -404.829 482.567 -414.83 486.067 -404.83 479.067 -404.829"/></g><g id="edge16" class="edge"><title>out2-&gt;((&lt;function print_and_return at 0x1071c2500&gt;, &apos;out2&apos;), &apos;function&apos;)</title><path fill="none" stroke="#000" d="M323.567,-379.022C323.567,-386.21 323.567,-395.118 323.567,-404.677"/><polygon fill="#000" stroke="#000" points="320.067 -404.829 323.567 -414.83 327.067 -404.83 320.067 -404.829"/></g><g id="edge17" class="edge"><title>((&lt;function print_and_return at 0x1071c2500&gt;, &apos;out1&apos;), &apos;function&apos;)-&gt;print1</title><path fill="none" stroke="#000" d="M482.567,-553.986C482.567,-563.062 482.567,-571.902 482.567,-579.677"/><polygon fill="#000" stroke="#000" points="479.067 -579.873 482.567 -589.873 486.067 -579.873 479.067 -579.873"/></g><g id="node16" class="node"><title>words</title><polygon fill="none" stroke="#000" points="388.312 -36 94.822 -36 94.822 0 388.312 0 388.312 -36"/><text x="241.567" y="-13.8" font-family="Times,serif" font-size="14" text-anchor="middle">words=&apos;apple orange apple pear orange pear pear&apos;</text></g><g id="edge19" class="edge"><title>words-&gt;((&lt;method &apos;count&apos; of &apos;str&apos; objects&gt;, &apos;words&apos;, &apos;val2&apos;), &apos;function&apos;)</title><path fill="none" stroke="#000" d="M258.957,-36.338C269.547,-46.8958 283.324,-60.6316 295.434,-72.7057"/><polygon fill="#000" stroke="#000" points="293.163 -75.384 302.716 -79.966 298.105 -70.427 293.163 -75.384"/></g><g id="edge20" class="edge"><title>words-&gt;((&lt;method &apos;count&apos; of &apos;str&apos; objects&gt;, &apos;words&apos;, &apos;val1&apos;), &apos;function&apos;)</title><path fill="none" stroke="#000" d="M291.795,-36.0388C337.419,-51.5159 403.703,-74.0011 444.918,-87.9826"/><polygon fill="#000" stroke="#000" points="443.982 -91.361 454.576 -91.259 446.23 -84.732 443.982 -91.361"/></g><g id="node20" class="node"><title>((&lt;built-in function len&gt;, (&lt;method &apos;split&apos; of &apos;str&apos; objects&gt;, &apos;words&apos;)), &apos;function&apos;)</title><ellipse cx="242.567" cy="-101.754" fill="none" stroke="#000" rx="20.822" ry="20.822"/><text x="242.567" y="-97.554" font-family="Times,serif" font-size="14" text-anchor="middle">len</text></g><g id="edge21" class="edge"><title>words-&gt;((&lt;built-in function len&gt;, (&lt;method &apos;split&apos; of &apos;str&apos; objects&gt;, &apos;words&apos;)), &apos;function&apos;)</title><path fill="none" stroke="#000" d="M241.779,-36.338C241.9,-46.2425 242.055,-58.9439 242.196,-70.4465"/><polygon fill="#000" stroke="#000" points="238.698 -70.602 242.32 -80.558 245.697 -70.516 238.698 -70.602"/></g><g id="edge18" class="edge"><title>words-&gt;((&lt;method &apos;count&apos; of &apos;str&apos; objects&gt;, &apos;words&apos;, &apos;val3&apos;), &apos;function&apos;)</title><path fill="none" stroke="#000" d="M218.717,-36.1384C202.945,-47.9683 181.76,-63.8575 164.345,-76.919"/><polygon fill="#000" stroke="#000" points="162.039 -74.273 156.14 -83.074 166.24 -79.874 162.039 -74.273"/></g><g id="edge22" class="edge"><title>count1-&gt;((&lt;built-in method format of str object at 0x1004d0c90&gt;, &apos;count1&apos;, &apos;val1&apos;, &apos;nwords&apos;), &apos;function&apos;)</title><path fill="none" stroke="#000" d="M482.567,-203.847C482.567,-211.237 482.567,-220.218 482.567,-229.208"/><polygon fill="#000" stroke="#000" points="479.067 -229.276 482.567 -239.276 486.067 -229.276 479.067 -229.276"/></g><g id="node18" class="node"><title>count3</title><polygon fill="none" stroke="#000" points="159.671 -203.508 105.463 -203.508 105.463 -167.508 159.671 -167.508 159.671 -203.508"/><text x="132.567" y="-181.308" font-family="Times,serif" font-size="14" text-anchor="middle">count3</text></g><g id="edge23" class="edge"><title>count3-&gt;((&lt;built-in method format of str object at 0x1004d0c90&gt;, &apos;count3&apos;, &apos;val3&apos;, &apos;nwords&apos;), &apos;function&apos;)</title><path fill="none" stroke="#000" d="M132.567,-203.847C132.567,-211.237 132.567,-220.218 132.567,-229.208"/><polygon fill="#000" stroke="#000" points="129.067 -229.276 132.567 -239.276 136.067 -229.276 129.067 -229.276"/></g><g id="edge24" class="edge"><title>count2-&gt;((&lt;built-in method format of str object at 0x1004d0c90&gt;, &apos;count2&apos;, &apos;val2&apos;, &apos;nwords&apos;), &apos;function&apos;)</title><path fill="none" stroke="#000" d="M323.567,-203.847C323.567,-211.237 323.567,-220.218 323.567,-229.208"/><polygon fill="#000" stroke="#000" points="320.067 -229.276 323.567 -239.276 327.067 -229.276 320.067 -229.276"/></g><g id="edge25" class="edge"><title>((&lt;built-in function len&gt;, (&lt;method &apos;split&apos; of &apos;str&apos; objects&gt;, &apos;words&apos;)), &apos;function&apos;)-&gt;nwords</title><path fill="none" stroke="#000" d="M243.308,-122.963C243.687,-133.283 244.153,-145.988 244.564,-157.169"/><polygon fill="#000" stroke="#000" points="241.071 -157.43 244.935 -167.295 248.066 -157.174 241.071 -157.43"/></g><g id="edge26" class="edge"><title>((&lt;method &apos;count&apos; of &apos;str&apos; objects&gt;, &apos;words&apos;, &apos;val3&apos;), &apos;function&apos;)-&gt;count3</title><path fill="none" stroke="#000" d="M132.567,-131.808C132.567,-140.105 132.567,-149.113 132.567,-157.296"/><polygon fill="#000" stroke="#000" points="129.067 -157.448 132.567 -167.448 136.067 -157.448 129.067 -157.448"/></g><g id="node23" class="node"><title>out3</title><polygon fill="none" stroke="#000" points="159.567 -378.867 105.567 -378.867 105.567 -342.867 159.567 -342.867 159.567 -378.867"/><text x="132.567" y="-356.667" font-family="Times,serif" font-size="14" text-anchor="middle">out3</text></g><g id="edge27" class="edge"><title>((&lt;built-in method format of str object at 0x1004d0c90&gt;, &apos;count3&apos;, &apos;val3&apos;, &apos;nwords&apos;), &apos;function&apos;)-&gt;out3</title><path fill="none" stroke="#000" d="M132.567,-307.068C132.567,-315.469 132.567,-324.409 132.567,-332.5"/><polygon fill="#000" stroke="#000" points="129.067 -332.528 132.567 -342.528 136.067 -332.529 129.067 -332.528"/></g><g id="node24" class="node"><title>((&lt;function print_and_return at 0x1071c2500&gt;, &apos;out3&apos;), &apos;function&apos;)</title><ellipse cx="132.567" cy="-484.404" fill="none" stroke="#000" rx="69.574" ry="69.574"/><text x="132.567" y="-480.204" font-family="Times,serif" font-size="14" text-anchor="middle">print_and_return</text></g><g id="edge28" class="edge"><title>out3-&gt;((&lt;function print_and_return at 0x1071c2500&gt;, &apos;out3&apos;), &apos;function&apos;)</title><path fill="none" stroke="#000" d="M132.567,-379.022C132.567,-386.21 132.567,-395.118 132.567,-404.677"/><polygon fill="#000" stroke="#000" points="129.067 -404.829 132.567 -414.83 136.067 -404.83 129.067 -404.829"/></g><g id="edge29" class="edge"><title>((&lt;function print_and_return at 0x1071c2500&gt;, &apos;out3&apos;), &apos;function&apos;)-&gt;print3</title><path fill="none" stroke="#000" d="M132.567,-553.986C132.567,-563.062 132.567,-571.902 132.567,-579.677"/><polygon fill="#000" stroke="#000" points="129.067 -579.873 132.567 -589.873 136.067 -579.873 129.067 -579.873"/></g></g></svg>