<svg xmlns="http://www.w3.org/2000/svg" xmlns:xlink="http://www.w3.org/1999/xlink" width="304pt" height="562pt" viewBox="0 0 304.07 561.94"><g id="graph0" class="graph" transform="scale(1 1) rotate(0) translate(4 557.941)"><title>G</title><polygon fill="#fff" stroke="none" points="-4 4 -4 -557.941 300.074 -557.941 300.074 4 -4 4"/><g id="node1" class="node"><title>print1</title><polygon fill="none" stroke="#000" points="253.537 -553.941 199.537 -553.941 199.537 -517.941 253.537 -517.941 253.537 -553.941"/><text x="226.537" y="-531.741" font-family="Times,serif" font-size="14" text-anchor="middle">print1</text></g><g id="node2" class="node"><title>out1</title><polygon fill="none" stroke="#000" points="252.537 -306.867 198.537 -306.867 198.537 -270.867 252.537 -270.867 252.537 -306.867"/><text x="225.537" y="-284.667" font-family="Times,serif" font-size="14" text-anchor="middle">out1</text></g><g id="node10" class="node"><title>((&lt;function print_and_return at 0x1084bf500&gt;, &apos;out1&apos;), &apos;function&apos;)</title><ellipse cx="226.537" cy="-412.404" fill="none" stroke="#000" rx="69.574" ry="69.574"/><text x="226.537" y="-408.204" font-family="Times,serif" font-size="14" text-anchor="middle">print_and_return</text></g><g id="edge1" class="edge"><title>out1-&gt;((&lt;function print_and_return at 0x1084bf500&gt;, &apos;out1&apos;), &apos;function&apos;)</title><path fill="none" stroke="#000" d="M225.678,-307.022C225.737,-314.21 225.81,-323.118 225.889,-332.677"/><polygon fill="#000" stroke="#000" points="222.39 -332.859 225.973 -342.83 229.39 -332.801 222.39 -332.859"/></g><g id="node3" class="node"><title>out2</title><polygon fill="none" stroke="#000" points="96.537 -306.867 42.537 -306.867 42.537 -270.867 96.537 -270.867 96.537 -306.867"/><text x="69.537" y="-284.667" font-family="Times,serif" font-size="14" text-anchor="middle">out2</text></g><g id="node14" class="node"><title>((&lt;function print_and_return at 0x1084bf500&gt;, &apos;out2&apos;), &apos;function&apos;)</title><ellipse cx="69.537" cy="-412.404" fill="none" stroke="#000" rx="69.574" ry="69.574"/><text x="69.537" y="-408.204" font-family="Times,serif" font-size="14" text-anchor="middle">print_and_return</text></g><g id="edge2" class="edge"><title>out2-&gt;((&lt;function print_and_return at 0x1084bf500&gt;, &apos;out2&apos;), &apos;function&apos;)</title><path fill="none" stroke="#000" d="M69.5368,-307.022C69.5368,-314.21 69.5368,-323.118 69.5368,-332.677"/><polygon fill="#000" stroke="#000" points="66.037 -332.829 69.537 -342.83 73.037 -332.83 66.037 -332.829"/></g><g id="node4" class="node"><title>((&lt;built-in function len&gt;, (&lt;method &apos;split&apos; of &apos;str&apos; objects&gt;, &apos;apple orange apple pear orange pear pear&apos;)), &apos;function&apos;)</title><ellipse cx="148.537" cy="-29.754" fill="none" stroke="#000" rx="20.822" ry="20.822"/><text x="148.537" y="-25.554" font-family="Times,serif" font-size="14" text-anchor="middle">len</text></g><g id="node7" class="node"><title>nwords</title><polygon fill="none" stroke="#000" points="177.258 -131.508 119.816 -131.508 119.816 -95.508 177.258 -95.508 177.258 -131.508"/><text x="148.537" y="-109.308" font-family="Times,serif" font-size="14" text-anchor="middle">nwords</text></g><g id="edge3" class="edge"><title>((&lt;built-in function len&gt;, (&lt;method &apos;split&apos; of &apos;str&apos; objects&gt;, &apos;apple orange apple pear orange pear pear&apos;)), &apos;function&apos;)-&gt;nwords</title><path fill="none" stroke="#000" d="M148.537,-50.9631C148.537,-61.2829 148.537,-73.9879 148.537,-85.1693"/><polygon fill="#000" stroke="#000" points="145.037 -85.295 148.537 -95.295 152.037 -85.295 145.037 -85.295"/></g><g id="node5" class="node"><title>((&lt;built-in method format of str object at 0x1005d0c90&gt;, &apos;count2&apos;, &apos;apple&apos;, &apos;nwords&apos;), &apos;function&apos;)</title><ellipse cx="70.537" cy="-201.188" fill="none" stroke="#000" rx="33.86" ry="33.86"/><text x="70.537" y="-196.988" font-family="Times,serif" font-size="14" text-anchor="middle">format</text></g><g id="edge4" class="edge"><title>((&lt;built-in method format of str object at 0x1005d0c90&gt;, &apos;count2&apos;, &apos;apple&apos;, &apos;nwords&apos;), &apos;function&apos;)-&gt;out2</title><path fill="none" stroke="#000" d="M70.153,-235.068C70.055,-243.469 69.9507,-252.409 69.8562,-260.5"/><polygon fill="#000" stroke="#000" points="66.356 -260.488 69.739 -270.528 73.356 -260.57 66.356 -260.488"/></g><g id="node6" class="node"><title>print2</title><polygon fill="none" stroke="#000" points="96.537 -553.941 42.537 -553.941 42.537 -517.941 96.537 -517.941 96.537 -553.941"/><text x="69.537" y="-531.741" font-family="Times,serif" font-size="14" text-anchor="middle">print2</text></g><g id="edge6" class="edge"><title>nwords-&gt;((&lt;built-in method format of str object at 0x1005d0c90&gt;, &apos;count2&apos;, &apos;apple&apos;, &apos;nwords&apos;), &apos;function&apos;)</title><path fill="none" stroke="#000" d="M132.752,-131.847C123.241,-142.294 110.834,-155.923 99.6041,-168.259"/><polygon fill="#000" stroke="#000" points="96.944 -165.981 92.8 -175.732 102.12 -170.694 96.944 -165.981"/></g><g id="node9" class="node"><title>((&lt;built-in method format of str object at 0x1005d0c90&gt;, &apos;count1&apos;, &apos;orange&apos;, &apos;nwords&apos;), &apos;function&apos;)</title><ellipse cx="224.537" cy="-201.188" fill="none" stroke="#000" rx="33.86" ry="33.86"/><text x="224.537" y="-196.988" font-family="Times,serif" font-size="14" text-anchor="middle">format</text></g><g id="edge5" class="edge"><title>nwords-&gt;((&lt;built-in method format of str object at 0x1005d0c90&gt;, &apos;count1&apos;, &apos;orange&apos;, &apos;nwords&apos;), &apos;function&apos;)</title><path fill="none" stroke="#000" d="M163.917,-131.847C173.025,-142.115 184.86,-155.457 195.652,-167.624"/><polygon fill="#000" stroke="#000" points="193.3 -170.247 202.554 -175.406 198.537 -165.602 193.3 -170.247"/></g><g id="node8" class="node"><title>((&lt;method &apos;count&apos; of &apos;str&apos; objects&gt;, &apos;apple orange apple pear orange pear pear&apos;, &apos;orange&apos;), &apos;function&apos;)</title><ellipse cx="224.537" cy="-29.754" fill="none" stroke="#000" rx="29.51" ry="29.51"/><text x="224.537" y="-25.554" font-family="Times,serif" font-size="14" text-anchor="middle">count</text></g><g id="node12" class="node"><title>count1</title><polygon fill="none" stroke="#000" points="251.64 -131.508 197.433 -131.508 197.433 -95.508 251.64 -95.508 251.64 -131.508"/><text x="224.537" y="-109.308" font-family="Times,serif" font-size="14" text-anchor="middle">count1</text></g><g id="edge7" class="edge"><title>((&lt;method &apos;count&apos; of &apos;str&apos; objects&gt;, &apos;apple orange apple pear orange pear pear&apos;, &apos;orange&apos;), &apos;function&apos;)-&gt;count1</title><path fill="none" stroke="#000" d="M224.537,-59.8078C224.537,-68.1049 224.537,-77.113 224.537,-85.2956"/><polygon fill="#000" stroke="#000" points="221.037 -85.448 224.537 -95.448 228.037 -85.448 221.037 -85.448"/></g><g id="edge8" class="edge"><title>((&lt;built-in method format of str object at 0x1005d0c90&gt;, &apos;count1&apos;, &apos;orange&apos;, &apos;nwords&apos;), &apos;function&apos;)-&gt;out1</title><path fill="none" stroke="#000" d="M224.921,-235.068C225.019,-243.469 225.123,-252.409 225.217,-260.5"/><polygon fill="#000" stroke="#000" points="221.718 -260.57 225.334 -270.528 228.717 -260.488 221.718 -260.57"/></g><g id="edge9" class="edge"><title>((&lt;function print_and_return at 0x1084bf500&gt;, &apos;out1&apos;), &apos;function&apos;)-&gt;print1</title><path fill="none" stroke="#000" d="M226.537,-481.986C226.537,-491.062 226.537,-499.902 226.537,-507.677"/><polygon fill="#000" stroke="#000" points="223.037 -507.873 226.537 -517.873 230.037 -507.873 223.037 -507.873"/></g><g id="node11" class="node"><title>((&lt;method &apos;count&apos; of &apos;str&apos; objects&gt;, &apos;apple orange apple pear orange pear pear&apos;, &apos;apple&apos;), &apos;function&apos;)</title><ellipse cx="70.537" cy="-29.754" fill="none" stroke="#000" rx="29.51" ry="29.51"/><text x="70.537" y="-25.554" font-family="Times,serif" font-size="14" text-anchor="middle">count</text></g><g id="node13" class="node"><title>count2</title><polygon fill="none" stroke="#000" points="97.64 -131.508 43.433 -131.508 43.433 -95.508 97.64 -95.508 97.64 -131.508"/><text x="70.537" y="-109.308" font-family="Times,serif" font-size="14" text-anchor="middle">count2</text></g><g id="edge10" class="edge"><title>((&lt;method &apos;count&apos; of &apos;str&apos; objects&gt;, &apos;apple orange apple pear orange pear pear&apos;, &apos;apple&apos;), &apos;function&apos;)-&gt;count2</title><path fill="none" stroke="#000" d="M70.5368,-59.8078C70.5368,-68.1049 70.5368,-77.113 70.5368,-85.2956"/><polygon fill="#000" stroke="#000" points="67.037 -85.448 70.537 -95.448 74.037 -85.448 67.037 -85.448"/></g><g id="edge11" class="edge"><title>count1-&gt;((&lt;built-in method format of str object at 0x1005d0c90&gt;, &apos;count1&apos;, &apos;orange&apos;, &apos;nwords&apos;), &apos;function&apos;)</title><path fill="none" stroke="#000" d="M224.537,-131.847C224.537,-139.237 224.537,-148.218 224.537,-157.208"/><polygon fill="#000" stroke="#000" points="221.037 -157.276 224.537 -167.276 228.037 -157.276 221.037 -157.276"/></g><g id="edge12" class="edge"><title>count2-&gt;((&lt;built-in method format of str object at 0x1005d0c90&gt;, &apos;count2&apos;, &apos;apple&apos;, &apos;nwords&apos;), &apos;function&apos;)</title><path fill="none" stroke="#000" d="M70.5368,-131.847C70.5368,-139.237 70.5368,-148.218 70.5368,-157.208"/><polygon fill="#000" stroke="#000" points="67.037 -157.276 70.537 -167.276 74.037 -157.276 67.037 -157.276"/></g><g id="edge13" class="edge"><title>((&lt;function print_and_return at 0x1084bf500&gt;, &apos;out2&apos;), &apos;function&apos;)-&gt;print2</title><path fill="none" stroke="#000" d="M69.5368,-481.986C69.5368,-491.062 69.5368,-499.902 69.5368,-507.677"/><polygon fill="#000" stroke="#000" points="66.037 -507.873 69.537 -517.873 73.037 -507.873 66.037 -507.873"/></g></g></svg>