<svg xmlns="http://www.w3.org/2000/svg" xmlns:xlink="http://www.w3.org/1999/xlink" width="304pt" height="562pt" viewBox="0 0 304.07 561.94"><g id="graph0" class="graph" transform="scale(1 1) rotate(0) translate(4 557.941)"><title>G</title><polygon fill="#fff" stroke="none" points="-4 4 -4 -557.941 300.074 -557.941 300.074 4 -4 4"/><g id="node1" class="node"><title>print1</title><polygon fill="none" stroke="#000" points="96.537 -553.941 42.537 -553.941 42.537 -517.941 96.537 -517.941 96.537 -553.941"/><text x="69.537" y="-531.741" font-family="Times,serif" font-size="14" text-anchor="middle">print1</text></g><g id="node2" class="node"><title>out1</title><polygon fill="none" stroke="#000" points="96.537 -306.867 42.537 -306.867 42.537 -270.867 96.537 -270.867 96.537 -306.867"/><text x="69.537" y="-284.667" font-family="Times,serif" font-size="14" text-anchor="middle">out1</text></g><g id="node8" class="node"><title>((&lt;function print_and_return at 0x1071c2500&gt;, &apos;out1&apos;), &apos;function&apos;)</title><ellipse cx="69.537" cy="-412.404" fill="none" stroke="#000" rx="69.574" ry="69.574"/><text x="69.537" y="-408.204" font-family="Times,serif" font-size="14" text-anchor="middle">print_and_return</text></g><g id="edge1" class="edge"><title>out1-&gt;((&lt;function print_and_return at 0x1071c2500&gt;, &apos;out1&apos;), &apos;function&apos;)</title><path fill="none" stroke="#000" d="M69.5368,-307.022C69.5368,-314.21 69.5368,-323.118 69.5368,-332.677"/><polygon fill="#000" stroke="#000" points="66.037 -332.829 69.537 -342.83 73.037 -332.83 66.037 -332.829"/></g><g id="node3" class="node"><title>out2</title><polygon fill="none" stroke="#000" points="253.537 -306.867 199.537 -306.867 199.537 -270.867 253.537 -270.867 253.537 -306.867"/><text x="226.537" y="-284.667" font-family="Times,serif" font-size="14" text-anchor="middle">out2</text></g><g id="node12" class="node"><title>((&lt;function print_and_return at 0x1071c2500&gt;, &apos;out2&apos;), &apos;function&apos;)</title><ellipse cx="226.537" cy="-412.404" fill="none" stroke="#000" rx="69.574" ry="69.574"/><text x="226.537" y="-408.204" font-family="Times,serif" font-size="14" text-anchor="middle">print_and_return</text></g><g id="edge2" class="edge"><title>out2-&gt;((&lt;function print_and_return at 0x1071c2500&gt;, &apos;out2&apos;), &apos;function&apos;)</title><path fill="none" stroke="#000" d="M226.537,-307.022C226.537,-314.21 226.537,-323.118 226.537,-332.677"/><polygon fill="#000" stroke="#000" points="223.037 -332.829 226.537 -342.83 230.037 -332.83 223.037 -332.829"/></g><g id="node4" class="node"><title>((&lt;built-in method format of str object at 0x1004d0c90&gt;, &apos;count1&apos;, &apos;orange&apos;, (&lt;built-in function len&gt;, (&lt;method &apos;split&apos; of &apos;str&apos; objects&gt;, &apos;apple orange apple pear orange pear pear&apos;))), &apos;function&apos;)</title><ellipse cx="69.537" cy="-201.188" fill="none" stroke="#000" rx="33.86" ry="33.86"/><text x="69.537" y="-196.988" font-family="Times,serif" font-size="14" text-anchor="middle">format</text></g><g id="edge3" class="edge"><title>((&lt;built-in method format of str object at 0x1004d0c90&gt;, &apos;count1&apos;, &apos;orange&apos;, (&lt;built-in function len&gt;, (&lt;method &apos;split&apos; of &apos;str&apos; objects&gt;, &apos;apple orange apple pear orange pear pear&apos;))), &apos;function&apos;)-&gt;out1</title><path fill="none" stroke="#000" d="M69.5368,-235.068C69.5368,-243.469 69.5368,-252.409 69.5368,-260.5"/><polygon fill="#000" stroke="#000" points="66.037 -260.528 69.537 -270.528 73.037 -260.529 66.037 -260.528"/></g><g id="node5" class="node"><title>((&lt;built-in method format of str object at 0x1004d0c90&gt;, &apos;count2&apos;, &apos;apple&apos;, (&lt;built-in function len&gt;, (&lt;method &apos;split&apos; of &apos;str&apos; objects&gt;, &apos;apple orange apple pear orange pear pear&apos;))), &apos;function&apos;)</title><ellipse cx="226.537" cy="-201.188" fill="none" stroke="#000" rx="33.86" ry="33.86"/><text x="226.537" y="-196.988" font-family="Times,serif" font-size="14" text-anchor="middle">format</text></g><g id="edge4" class="edge"><title>((&lt;built-in method format of str object at 0x1004d0c90&gt;, &apos;count2&apos;, &apos;apple&apos;, (&lt;built-in function len&gt;, (&lt;method &apos;split&apos; of &apos;str&apos; objects&gt;, &apos;apple orange apple pear orange pear pear&apos;))), &apos;function&apos;)-&gt;out2</title><path fill="none" stroke="#000" d="M226.537,-235.068C226.537,-243.469 226.537,-252.409 226.537,-260.5"/><polygon fill="#000" stroke="#000" points="223.037 -260.528 226.537 -270.528 230.037 -260.529 223.037 -260.528"/></g><g id="node6" class="node"><title>print2</title><polygon fill="none" stroke="#000" points="253.537 -553.941 199.537 -553.941 199.537 -517.941 253.537 -517.941 253.537 -553.941"/><text x="226.537" y="-531.741" font-family="Times,serif" font-size="14" text-anchor="middle">print2</text></g><g id="node7" class="node"><title>((&lt;method &apos;count&apos; of &apos;str&apos; objects&gt;, &apos;apple orange apple pear orange pear pear&apos;, &apos;orange&apos;), &apos;function&apos;)</title><ellipse cx="69.537" cy="-29.754" fill="none" stroke="#000" rx="29.51" ry="29.51"/><text x="69.537" y="-25.554" font-family="Times,serif" font-size="14" text-anchor="middle">count</text></g><g id="node10" class="node"><title>count1</title><polygon fill="none" stroke="#000" points="96.64 -131.508 42.433 -131.508 42.433 -95.508 96.64 -95.508 96.64 -131.508"/><text x="69.537" y="-109.308" font-family="Times,serif" font-size="14" text-anchor="middle">count1</text></g><g id="edge5" class="edge"><title>((&lt;method &apos;count&apos; of &apos;str&apos; objects&gt;, &apos;apple orange apple pear orange pear pear&apos;, &apos;orange&apos;), &apos;function&apos;)-&gt;count1</title><path fill="none" stroke="#000" d="M69.5368,-59.8078C69.5368,-68.1049 69.5368,-77.113 69.5368,-85.2956"/><polygon fill="#000" stroke="#000" points="66.037 -85.448 69.537 -95.448 73.037 -85.448 66.037 -85.448"/></g><g id="edge6" class="edge"><title>((&lt;function print_and_return at 0x1071c2500&gt;, &apos;out1&apos;), &apos;function&apos;)-&gt;print1</title><path fill="none" stroke="#000" d="M69.5368,-481.986C69.5368,-491.062 69.5368,-499.902 69.5368,-507.677"/><polygon fill="#000" stroke="#000" points="66.037 -507.873 69.537 -517.873 73.037 -507.873 66.037 -507.873"/></g><g id="node9" class="node"><title>((&lt;method &apos;count&apos; of &apos;str&apos; objects&gt;, &apos;apple orange apple pear orange pear pear&apos;, &apos;apple&apos;), &apos;function&apos;)</title><ellipse cx="226.537" cy="-29.754" fill="none" stroke="#000" rx="29.51" ry="29.51"/><text x="226.537" y="-25.554" font-family="Times,serif" font-size="14" text-anchor="middle">count</text></g><g id="node11" class="node"><title>count2</title><polygon fill="none" stroke="#000" points="253.64 -131.508 199.433 -131.508 199.433 -95.508 253.64 -95.508 253.64 -131.508"/><text x="226.537" y="-109.308" font-family="Times,serif" font-size="14" text-anchor="middle">count2</text></g><g id="edge7" class="edge"><title>((&lt;method &apos;count&apos; of &apos;str&apos; objects&gt;, &apos;apple orange apple pear orange pear pear&apos;, &apos;apple&apos;), &apos;function&apos;)-&gt;count2</title><path fill="none" stroke="#000" d="M226.537,-59.8078C226.537,-68.1049 226.537,-77.113 226.537,-85.2956"/><polygon fill="#000" stroke="#000" points="223.037 -85.448 226.537 -95.448 230.037 -85.448 223.037 -85.448"/></g><g id="edge8" class="edge"><title>count1-&gt;((&lt;built-in method format of str object at 0x1004d0c90&gt;, &apos;count1&apos;, &apos;orange&apos;, (&lt;built-in function len&gt;, (&lt;method &apos;split&apos; of &apos;str&apos; objects&gt;, &apos;apple orange apple pear orange pear pear&apos;))), &apos;function&apos;)</title><path fill="none" stroke="#000" d="M69.5368,-131.847C69.5368,-139.237 69.5368,-148.218 69.5368,-157.208"/><polygon fill="#000" stroke="#000" points="66.037 -157.276 69.537 -167.276 73.037 -157.276 66.037 -157.276"/></g><g id="edge9" class="edge"><title>count2-&gt;((&lt;built-in method format of str object at 0x1004d0c90&gt;, &apos;count2&apos;, &apos;apple&apos;, (&lt;built-in function len&gt;, (&lt;method &apos;split&apos; of &apos;str&apos; objects&gt;, &apos;apple orange apple pear orange pear pear&apos;))), &apos;function&apos;)</title><path fill="none" stroke="#000" d="M226.537,-131.847C226.537,-139.237 226.537,-148.218 226.537,-157.208"/><polygon fill="#000" stroke="#000" points="223.037 -157.276 226.537 -167.276 230.037 -157.276 223.037 -157.276"/></g><g id="edge10" class="edge"><title>((&lt;function print_and_return at 0x1071c2500&gt;, &apos;out2&apos;), &apos;function&apos;)-&gt;print2</title><path fill="none" stroke="#000" d="M226.537,-481.986C226.537,-491.062 226.537,-499.902 226.537,-507.677"/><polygon fill="#000" stroke="#000" points="223.037 -507.873 226.537 -517.873 230.037 -507.873 223.037 -507.873"/></g></g></svg>