<svg xmlns="http://www.w3.org/2000/svg" xmlns:xlink="http://www.w3.org/1999/xlink" width="511pt" height="634pt" viewBox="0 0 511.25 633.94"><g id="graph0" class="graph" transform="scale(1 1) rotate(0) translate(4 629.941)"><title>G</title><polygon fill="#fff" stroke="none" points="-4 4 -4 -629.941 507.248 -629.941 507.248 4 -4 4"/><g id="node1" class="node"><title>((&lt;built-in method format of str object at 0x1005d0c90&gt;, &apos;count2&apos;, &apos;val2&apos;, &apos;nwords&apos;), &apos;function&apos;)</title><ellipse cx="154.681" cy="-273.188" fill="none" stroke="#000" rx="33.86" ry="33.86"/><text x="154.681" y="-268.988" font-family="Times,serif" font-size="14" text-anchor="middle">format</text></g><g id="node7" class="node"><title>out2</title><polygon fill="none" stroke="#000" points="181.681 -378.867 127.681 -378.867 127.681 -342.867 181.681 -342.867 181.681 -378.867"/><text x="154.681" y="-356.667" font-family="Times,serif" font-size="14" text-anchor="middle">out2</text></g><g id="edge1" class="edge"><title>((&lt;built-in method format of str object at 0x1005d0c90&gt;, &apos;count2&apos;, &apos;val2&apos;, &apos;nwords&apos;), &apos;function&apos;)-&gt;out2</title><path fill="none" stroke="#000" d="M154.681,-307.068C154.681,-315.469 154.681,-324.409 154.681,-332.5"/><polygon fill="#000" stroke="#000" points="151.181 -332.528 154.681 -342.528 158.181 -332.529 151.181 -332.528"/></g><g id="node2" class="node"><title>out1</title><polygon fill="none" stroke="#000" points="387.681 -378.867 333.681 -378.867 333.681 -342.867 387.681 -342.867 387.681 -378.867"/><text x="360.681" y="-356.667" font-family="Times,serif" font-size="14" text-anchor="middle">out1</text></g><g id="node10" class="node"><title>((&lt;function print_and_return at 0x1084bf500&gt;, &apos;out1&apos;), &apos;function&apos;)</title><ellipse cx="360.681" cy="-484.404" fill="none" stroke="#000" rx="69.574" ry="69.574"/><text x="360.681" y="-480.204" font-family="Times,serif" font-size="14" text-anchor="middle">print_and_return</text></g><g id="edge2" class="edge"><title>out1-&gt;((&lt;function print_and_return at 0x1084bf500&gt;, &apos;out1&apos;), &apos;function&apos;)</title><path fill="none" stroke="#000" d="M360.681,-379.022C360.681,-386.21 360.681,-395.118 360.681,-404.677"/><polygon fill="#000" stroke="#000" points="357.181 -404.829 360.681 -414.83 364.181 -404.83 357.181 -404.829"/></g><g id="node3" class="node"><title>((&lt;built-in method format of str object at 0x1005d0c90&gt;, &apos;count1&apos;, &apos;val1&apos;, &apos;nwords&apos;), &apos;function&apos;)</title><ellipse cx="360.681" cy="-273.188" fill="none" stroke="#000" rx="33.86" ry="33.86"/><text x="360.681" y="-268.988" font-family="Times,serif" font-size="14" text-anchor="middle">format</text></g><g id="edge3" class="edge"><title>((&lt;built-in method format of str object at 0x1005d0c90&gt;, &apos;count1&apos;, &apos;val1&apos;, &apos;nwords&apos;), &apos;function&apos;)-&gt;out1</title><path fill="none" stroke="#000" d="M360.681,-307.068C360.681,-315.469 360.681,-324.409 360.681,-332.5"/><polygon fill="#000" stroke="#000" points="357.181 -332.528 360.681 -342.528 364.181 -332.529 357.181 -332.528"/></g><g id="node4" class="node"><title>((&lt;method &apos;count&apos; of &apos;str&apos; objects&gt;, &apos;words&apos;, &apos;val1&apos;), &apos;function&apos;)</title><ellipse cx="360.681" cy="-101.754" fill="none" stroke="#000" rx="29.51" ry="29.51"/><text x="360.681" y="-97.554" font-family="Times,serif" font-size="14" text-anchor="middle">count</text></g><g id="node12" class="node"><title>count1</title><polygon fill="none" stroke="#000" points="387.784 -203.508 333.577 -203.508 333.577 -167.508 387.784 -167.508 387.784 -203.508"/><text x="360.681" y="-181.308" font-family="Times,serif" font-size="14" text-anchor="middle">count1</text></g><g id="edge4" class="edge"><title>((&lt;method &apos;count&apos; of &apos;str&apos; objects&gt;, &apos;words&apos;, &apos;val1&apos;), &apos;function&apos;)-&gt;count1</title><path fill="none" stroke="#000" d="M360.681,-131.808C360.681,-140.105 360.681,-149.113 360.681,-157.296"/><polygon fill="#000" stroke="#000" points="357.181 -157.448 360.681 -167.448 364.181 -157.448 357.181 -157.448"/></g><g id="node5" class="node"><title>print2</title><polygon fill="none" stroke="#000" points="181.681 -625.941 127.681 -625.941 127.681 -589.941 181.681 -589.941 181.681 -625.941"/><text x="154.681" y="-603.741" font-family="Times,serif" font-size="14" text-anchor="middle">print2</text></g><g id="node6" class="node"><title>nwords</title><polygon fill="none" stroke="#000" points="276.402 -203.508 218.96 -203.508 218.96 -167.508 276.402 -167.508 276.402 -203.508"/><text x="247.681" y="-181.308" font-family="Times,serif" font-size="14" text-anchor="middle">nwords</text></g><g id="edge6" class="edge"><title>nwords-&gt;((&lt;built-in method format of str object at 0x1005d0c90&gt;, &apos;count2&apos;, &apos;val2&apos;, &apos;nwords&apos;), &apos;function&apos;)</title><path fill="none" stroke="#000" d="M228.861,-203.847C216.769,-214.986 200.752,-229.743 186.696,-242.692"/><polygon fill="#000" stroke="#000" points="184.11 -240.316 179.127 -249.666 188.853 -245.464 184.11 -240.316"/></g><g id="edge5" class="edge"><title>nwords-&gt;((&lt;built-in method format of str object at 0x1005d0c90&gt;, &apos;count1&apos;, &apos;val1&apos;, &apos;nwords&apos;), &apos;function&apos;)</title><path fill="none" stroke="#000" d="M270.276,-203.641C286.25,-215.753 307.962,-232.215 326.104,-245.971"/><polygon fill="#000" stroke="#000" points="324.072 -248.822 334.155 -252.075 328.301 -243.244 324.072 -248.822"/></g><g id="node17" class="node"><title>((&lt;function print_and_return at 0x1084bf500&gt;, &apos;out2&apos;), &apos;function&apos;)</title><ellipse cx="154.681" cy="-484.404" fill="none" stroke="#000" rx="69.574" ry="69.574"/><text x="154.681" y="-480.204" font-family="Times,serif" font-size="14" text-anchor="middle">print_and_return</text></g><g id="edge7" class="edge"><title>out2-&gt;((&lt;function print_and_return at 0x1084bf500&gt;, &apos;out2&apos;), &apos;function&apos;)</title><path fill="none" stroke="#000" d="M154.681,-379.022C154.681,-386.21 154.681,-395.118 154.681,-404.677"/><polygon fill="#000" stroke="#000" points="151.181 -404.829 154.681 -414.83 158.181 -404.83 151.181 -404.829"/></g><g id="node8" class="node"><title>print1</title><polygon fill="none" stroke="#000" points="387.681 -625.941 333.681 -625.941 333.681 -589.941 387.681 -589.941 387.681 -625.941"/><text x="360.681" y="-603.741" font-family="Times,serif" font-size="14" text-anchor="middle">print1</text></g><g id="node9" class="node"><title>((&lt;method &apos;count&apos; of &apos;str&apos; objects&gt;, &apos;words&apos;, &apos;val2&apos;), &apos;function&apos;)</title><ellipse cx="154.681" cy="-101.754" fill="none" stroke="#000" rx="29.51" ry="29.51"/><text x="154.681" y="-97.554" font-family="Times,serif" font-size="14" text-anchor="middle">count</text></g><g id="node15" class="node"><title>count2</title><polygon fill="none" stroke="#000" points="181.784 -203.508 127.577 -203.508 127.577 -167.508 181.784 -167.508 181.784 -203.508"/><text x="154.681" y="-181.308" font-family="Times,serif" font-size="14" text-anchor="middle">count2</text></g><g id="edge8" class="edge"><title>((&lt;method &apos;count&apos; of &apos;str&apos; objects&gt;, &apos;words&apos;, &apos;val2&apos;), &apos;function&apos;)-&gt;count2</title><path fill="none" stroke="#000" d="M154.681,-131.808C154.681,-140.105 154.681,-149.113 154.681,-157.296"/><polygon fill="#000" stroke="#000" points="151.181 -157.448 154.681 -167.448 158.181 -157.448 151.181 -157.448"/></g><g id="edge9" class="edge"><title>((&lt;function print_and_return at 0x1084bf500&gt;, &apos;out1&apos;), &apos;function&apos;)-&gt;print1</title><path fill="none" stroke="#000" d="M360.681,-553.986C360.681,-563.062 360.681,-571.902 360.681,-579.677"/><polygon fill="#000" stroke="#000" points="357.181 -579.873 360.681 -589.873 364.181 -579.873 357.181 -579.873"/></g><g id="node11" class="node"><title>words</title><polygon fill="none" stroke="#000" points="394.426 -36 100.935 -36 100.935 0 394.426 0 394.426 -36"/><text x="247.681" y="-13.8" font-family="Times,serif" font-size="14" text-anchor="middle">words=&apos;apple orange apple pear orange pear pear&apos;</text></g><g id="edge11" class="edge"><title>words-&gt;((&lt;method &apos;count&apos; of &apos;str&apos; objects&gt;, &apos;words&apos;, &apos;val1&apos;), &apos;function&apos;)</title><path fill="none" stroke="#000" d="M271.369,-36.1384C287.943,-48.1292 310.281,-64.2906 328.471,-77.4506"/><polygon fill="#000" stroke="#000" points="326.87 -80.612 337.023 -83.638 330.973 -74.941 326.87 -80.612"/></g><g id="edge10" class="edge"><title>words-&gt;((&lt;method &apos;count&apos; of &apos;str&apos; objects&gt;, &apos;words&apos;, &apos;val2&apos;), &apos;function&apos;)</title><path fill="none" stroke="#000" d="M227.958,-36.338C215.271,-47.4904 198.551,-62.189 184.285,-74.7293"/><polygon fill="#000" stroke="#000" points="181.854 -72.207 176.654 -81.438 186.476 -77.464 181.854 -72.207"/></g><g id="node16" class="node"><title>((&lt;built-in function len&gt;, (&lt;method &apos;split&apos; of &apos;str&apos; objects&gt;, &apos;words&apos;)), &apos;function&apos;)</title><ellipse cx="247.681" cy="-101.754" fill="none" stroke="#000" rx="20.822" ry="20.822"/><text x="247.681" y="-97.554" font-family="Times,serif" font-size="14" text-anchor="middle">len</text></g><g id="edge12" class="edge"><title>words-&gt;((&lt;built-in function len&gt;, (&lt;method &apos;split&apos; of &apos;str&apos; objects&gt;, &apos;words&apos;)), &apos;function&apos;)</title><path fill="none" stroke="#000" d="M247.681,-36.338C247.681,-46.2425 247.681,-58.9439 247.681,-70.4465"/><polygon fill="#000" stroke="#000" points="244.181 -70.558 247.681 -80.558 251.181 -70.558 244.181 -70.558"/></g><g id="edge13" class="edge"><title>count1-&gt;((&lt;built-in method format of str object at 0x1005d0c90&gt;, &apos;count1&apos;, &apos;val1&apos;, &apos;nwords&apos;), &apos;function&apos;)</title><path fill="none" stroke="#000" d="M360.681,-203.847C360.681,-211.237 360.681,-220.218 360.681,-229.208"/><polygon fill="#000" stroke="#000" points="357.181 -229.276 360.681 -239.276 364.181 -229.276 357.181 -229.276"/></g><g id="node13" class="node"><title>val2</title><polygon fill="none" stroke="#000" points="83.543 -36 -.181 -36 -.181 0 83.543 0 83.543 -36"/><text x="41.681" y="-13.8" font-family="Times,serif" font-size="14" text-anchor="middle">val2=&apos;apple&apos;</text></g><g id="edge15" class="edge"><title>val2-&gt;((&lt;built-in method format of str object at 0x1005d0c90&gt;, &apos;count2&apos;, &apos;val2&apos;, &apos;nwords&apos;), &apos;function&apos;)</title><path fill="none" stroke="#000" d="M48.2012,-36.0061C60.8993,-68.7941 90.2027,-142.872 118.681,-203.508 123.457,-213.677 128.944,-224.515 134.172,-234.504"/><polygon fill="#000" stroke="#000" points="131.105 -236.191 138.873 -243.396 137.294 -232.92 131.105 -236.191"/></g><g id="edge14" class="edge"><title>val2-&gt;((&lt;method &apos;count&apos; of &apos;str&apos; objects&gt;, &apos;words&apos;, &apos;val2&apos;), &apos;function&apos;)</title><path fill="none" stroke="#000" d="M65.3692,-36.1384C81.9428,-48.1292 104.281,-64.2906 122.471,-77.4506"/><polygon fill="#000" stroke="#000" points="120.87 -80.612 131.023 -83.638 124.973 -74.941 120.87 -80.612"/></g><g id="node14" class="node"><title>val1</title><polygon fill="none" stroke="#000" points="503.315 -36 412.047 -36 412.047 0 503.315 0 503.315 -36"/><text x="457.681" y="-13.8" font-family="Times,serif" font-size="14" text-anchor="middle">val1=&apos;orange&apos;</text></g><g id="edge16" class="edge"><title>val1-&gt;((&lt;built-in method format of str object at 0x1005d0c90&gt;, &apos;count1&apos;, &apos;val1&apos;, &apos;nwords&apos;), &apos;function&apos;)</title><path fill="none" stroke="#000" d="M453.034,-36.1312C443.863,-69.133 422.1,-143.561 396.681,-203.508 392.295,-213.852 386.943,-224.75 381.721,-234.742"/><polygon fill="#000" stroke="#000" points="378.603 -233.15 376.993 -243.622 384.782 -236.44 378.603 -233.15"/></g><g id="edge17" class="edge"><title>val1-&gt;((&lt;method &apos;count&apos; of &apos;str&apos; objects&gt;, &apos;words&apos;, &apos;val1&apos;), &apos;function&apos;)</title><path fill="none" stroke="#000" d="M437.109,-36.338C423.783,-47.5695 406.19,-62.3977 391.243,-74.9958"/><polygon fill="#000" stroke="#000" points="388.645 -72.607 383.255 -81.728 393.157 -77.96 388.645 -72.607"/></g><g id="edge18" class="edge"><title>count2-&gt;((&lt;built-in method format of str object at 0x1005d0c90&gt;, &apos;count2&apos;, &apos;val2&apos;, &apos;nwords&apos;), &apos;function&apos;)</title><path fill="none" stroke="#000" d="M154.681,-203.847C154.681,-211.237 154.681,-220.218 154.681,-229.208"/><polygon fill="#000" stroke="#000" points="151.181 -229.276 154.681 -239.276 158.181 -229.276 151.181 -229.276"/></g><g id="edge19" class="edge"><title>((&lt;built-in function len&gt;, (&lt;method &apos;split&apos; of &apos;str&apos; objects&gt;, &apos;words&apos;)), &apos;function&apos;)-&gt;nwords</title><path fill="none" stroke="#000" d="M247.681,-122.963C247.681,-133.283 247.681,-145.988 247.681,-157.169"/><polygon fill="#000" stroke="#000" points="244.181 -157.295 247.681 -167.295 251.181 -157.295 244.181 -157.295"/></g><g id="edge20" class="edge"><title>((&lt;function print_and_return at 0x1084bf500&gt;, &apos;out2&apos;), &apos;function&apos;)-&gt;print2</title><path fill="none" stroke="#000" d="M154.681,-553.986C154.681,-563.062 154.681,-571.902 154.681,-579.677"/><polygon fill="#000" stroke="#000" points="151.181 -579.873 154.681 -589.873 158.181 -579.873 151.181 -579.873"/></g></g></svg>